<svg width="44" height="44" viewBox="0 0 44 44" fill="none" xmlns="http://www.w3.org/2000/svg">
<g clip-path="url(#clip0_504_883)">
<path d="M36.2393 43.3666C26.8291 44.3721 17.3932 44.3721 7.98301 43.3666C4.22754 42.9627 1.2627 40.0065 0.867383 36.251C-0.138086 26.8408 -0.138086 17.4049 0.867383 7.99473C1.27129 4.23926 4.22754 1.27441 7.98301 0.879102C17.3932 -0.126367 26.8291 -0.126367 36.2393 0.879102C39.9947 1.28301 42.9596 4.23926 43.3549 7.99473C44.3603 17.4049 44.3603 26.8408 43.3549 36.251C42.9596 39.9979 39.9947 42.9627 36.2393 43.3666Z" fill="url(#paint0_linear_504_883)"/>
<path d="M40.9656 9.57656C40.6133 6.25078 37.9836 3.6125 34.6492 3.26016C26.2961 2.36641 17.9258 2.36641 9.57266 3.26016C6.23828 3.62109 3.60859 6.25078 3.25625 9.57656C2.3625 17.9297 2.3625 26.3 3.25625 34.6531C3.60859 37.9875 6.23828 40.6172 9.57266 40.9695C17.9258 41.8633 26.2961 41.8633 34.6492 40.9695C37.9836 40.6172 40.6133 37.9875 40.9656 34.6531C41.8508 26.3086 41.8508 17.9297 40.9656 9.57656Z" fill="url(#paint1_linear_504_883)"/>
<path d="M0.773438 35.332C0.807813 35.6328 0.833594 35.9422 0.867969 36.243C1.27188 39.9984 4.22813 42.9633 7.98359 43.3586C17.3938 44.364 26.8297 44.364 36.2398 43.3586C39.9953 42.9547 42.9602 39.9984 43.3555 36.243C43.3898 35.9422 43.4156 35.6328 43.45 35.332H0.773438Z" fill="url(#paint2_linear_504_883)"/>
<path d="M16.7394 10.9886C16.5779 11.0316 16.2376 11.1717 15.984 11.2963C15.3636 11.5988 14.7431 12.2081 14.4569 12.7967C14.2954 13.1207 13.9439 14.286 13.7015 15.2846C13.6749 15.3869 13.8743 15.2142 14.4355 14.659C15.5466 13.5478 16.6045 12.8406 17.9701 12.2846C18.5802 12.0362 19.7722 11.7019 20.2904 11.6314C20.4468 11.6099 20.5654 11.5824 20.549 11.5721C20.5379 11.561 20.0308 11.4157 19.4267 11.2481C18.4444 10.9835 18.2614 10.9517 17.6839 10.9302C17.2198 10.913 16.95 10.9293 16.7394 10.9886Z" fill="black"/>
<path d="M21.1549 12.4237C20.0326 12.532 18.9265 12.8448 17.8738 13.3407C14.9055 14.7543 12.8826 17.4742 12.397 20.7064C12.2947 21.3973 12.2947 22.811 12.397 23.5019C12.8826 26.734 14.9064 29.4539 17.8738 30.8676C21.0303 32.3681 24.705 32.0982 27.614 30.1449C29.8045 28.6771 31.2405 26.4968 31.7794 23.831C31.9194 23.1349 31.9194 21.0733 31.7794 20.3772C31.2397 17.7114 29.8045 15.5312 27.614 14.0634C25.7096 12.7855 23.4219 12.208 21.1549 12.4237ZM19.8822 15.068C21.3981 15.3808 22.3864 16.9509 22.0031 18.435C21.4634 20.507 18.8569 21.2142 17.341 19.6974C16.2513 18.6078 16.2565 16.9397 17.3573 15.8389C18.0526 15.1488 18.948 14.8738 19.8822 15.068ZM27.0098 16.4387C28.2619 16.7627 29.0981 17.8197 29.0981 19.077C29.0981 19.8917 28.8661 20.4743 28.3161 21.0252C27.9379 21.4033 27.4799 21.662 26.9883 21.7806C26.3086 21.937 25.7362 21.8665 25.0728 21.5374C23.9934 21.0089 23.3729 19.7671 23.6101 18.6181C23.7339 18.0139 23.9393 17.6306 24.3767 17.1881C24.943 16.6217 25.5257 16.3734 26.3189 16.3622C26.5294 16.3579 26.8431 16.3957 27.0098 16.4387ZM22.6072 21.1008C23.0172 21.3114 23.2707 21.7049 23.2707 22.1372C23.2707 23.0705 22.364 23.6428 21.5167 23.2432C21.1987 23.0971 21.1016 22.9949 20.9555 22.6709C20.4812 21.6293 21.5923 20.5774 22.6072 21.1008ZM18.4195 22.401C18.5811 22.4277 18.9102 22.5523 19.1483 22.6709C20.2276 23.1994 20.8481 24.4412 20.6109 25.5902C20.4872 26.1943 20.2818 26.5776 19.8444 27.0202C18.9592 27.9105 17.7234 28.1047 16.5908 27.5332C15.1393 26.7993 14.6589 24.8949 15.587 23.5457C16.2075 22.6554 17.3238 22.2017 18.4195 22.401ZM25.6125 23.7829C27.0313 24.1499 27.9328 25.5799 27.6363 26.9987C27.4799 27.7378 26.8379 28.5799 26.1848 28.8928C25.0676 29.4324 23.8001 29.2331 22.963 28.396C21.8673 27.3063 21.8622 25.5902 22.9467 24.5056C23.6376 23.8207 24.668 23.5397 25.6125 23.7829Z" fill="#EF3087"/>
<path d="M28.6094 13.7019C28.6094 13.7234 28.7177 13.8205 28.8526 13.9176C29.4679 14.3817 30.4123 15.4232 30.9838 16.2809C31.7659 17.441 32.3812 18.9896 32.6029 20.393C32.6407 20.6087 32.6785 20.7763 32.6948 20.7651C32.706 20.7488 32.8727 20.1498 33.067 19.427C33.3695 18.272 33.4124 18.0512 33.4124 17.6249C33.4124 16.6702 33.0618 15.8331 32.3872 15.1645C31.8423 14.63 31.3568 14.3877 30.2018 14.0903C29.7266 13.9666 29.1766 13.8205 28.9772 13.7663C28.7718 13.7131 28.6094 13.6804 28.6094 13.7019Z" fill="black"/>
<path d="M11.3977 23.8217C11.3977 23.8432 11.2627 24.3614 11.1012 24.9767C10.8477 25.9427 10.8047 26.1635 10.8047 26.5846C10.8047 27.5394 11.1553 28.3764 11.8248 29.0399C12.4023 29.6062 12.7907 29.7952 14.2155 30.1734C14.8472 30.3409 15.3757 30.4699 15.3869 30.4647C15.398 30.4535 15.3379 30.3891 15.252 30.3246C14.9495 30.0926 13.9732 29.1155 13.6492 28.7167C12.6618 27.5024 11.8952 25.8945 11.5609 24.3674C11.4621 23.9077 11.3977 23.6971 11.3977 23.8217Z" fill="black"/>
<path d="M30.3646 28.7761C30.246 28.9325 29.9272 29.2831 29.6574 29.5581C28.1896 31.0311 26.2628 32.0778 24.2399 32.4937C23.9322 32.553 23.6675 32.6175 23.6572 32.6286C23.6357 32.6501 23.6306 32.6501 24.8878 32.9844C26.5447 33.427 27.2133 33.4158 28.2222 32.92C28.9673 32.553 29.6307 31.8458 29.9006 31.1118C30.0407 30.75 30.6182 28.6076 30.5967 28.5432C30.5855 28.5174 30.4832 28.6248 30.3646 28.7761Z" fill="black"/>
</g>
<defs>
<linearGradient id="paint0_linear_504_883" x1="10.1195" y1="-0.983362" x2="41.8238" y2="60.096" gradientUnits="userSpaceOnUse">
<stop stop-color="#FFFCF8"/>
<stop offset="0.1875" stop-color="#FAF8F6"/>
<stop offset="0.4041" stop-color="#ECEEF2"/>
<stop offset="0.6353" stop-color="#D5DCEA"/>
<stop offset="0.875" stop-color="#B5C4DF"/>
<stop offset="1" stop-color="#A1B5D8"/>
</linearGradient>
<linearGradient id="paint1_linear_504_883" x1="16.9858" y1="19.2352" x2="-57.5554" y2="-22.6942" gradientUnits="userSpaceOnUse">
<stop stop-color="#A1B5D8" stop-opacity="0"/>
<stop offset="0.3094" stop-color="#90A2BD" stop-opacity="0.3098"/>
<stop offset="0.7554" stop-color="#7C8B9C" stop-opacity="0.7569"/>
<stop offset="1" stop-color="#748290"/>
</linearGradient>
<linearGradient id="paint2_linear_504_883" x1="22.1109" y1="38.9585" x2="22.1109" y2="45.8169" gradientUnits="userSpaceOnUse">
<stop stop-color="#A1B5D8" stop-opacity="0"/>
<stop offset="0.3094" stop-color="#90A2BD" stop-opacity="0.3098"/>
<stop offset="0.7554" stop-color="#7C8B9C" stop-opacity="0.7569"/>
<stop offset="1" stop-color="#748290"/>
</linearGradient>
<clipPath id="clip0_504_883">
<rect width="44" height="44" fill="white"/>
</clipPath>
</defs>
</svg>
