<svg width="41" height="41" viewBox="0 0 41 41" fill="none" xmlns="http://www.w3.org/2000/svg">
<g clip-path="url(#clip0_504_1598)">
<path d="M33.6666 40.2981C24.8977 41.234 16.1023 41.234 7.3334 40.2981C3.83687 39.9249 1.07511 37.1631 0.701935 33.6663C-0.233978 24.8974 -0.233978 16.1023 0.701935 7.3334C1.07511 3.83687 3.83687 1.07511 7.3334 0.701935C16.1023 -0.233978 24.8974 -0.233978 33.6663 0.701935C37.1631 1.07511 39.9249 3.83687 40.2981 7.3334C41.234 16.1023 41.234 24.8974 40.2981 33.6663C39.9249 37.1631 37.1634 39.9249 33.6666 40.2981Z" fill="url(#paint0_linear_504_1598)"/>
<path d="M38.0677 8.81604C37.7367 5.71332 35.2862 3.26249 32.1832 2.93123C24.4019 2.10105 16.5974 2.10105 8.81604 2.93123C5.71332 3.26249 3.26249 5.71332 2.93123 8.81604C2.10105 16.5974 2.10105 24.4019 2.93123 32.1829C3.26249 35.2859 5.71332 37.7367 8.81604 38.0677C16.5974 38.8982 24.4019 38.8982 32.1829 38.0677C35.2859 37.7367 37.7367 35.2859 38.0677 32.1829C38.8982 24.4019 38.8982 16.5974 38.0677 8.81604Z" fill="url(#paint1_linear_504_1598)"/>
<path d="M0.617188 32.8164C0.64534 33.0998 0.674431 33.3832 0.704773 33.6666C1.07795 37.1631 3.83971 39.9249 7.33656 40.2981C16.1054 41.234 24.9006 41.234 33.6694 40.2981C37.1663 39.9249 39.9277 37.1631 40.3009 33.6666C40.3312 33.3832 40.3603 33.0998 40.3888 32.8164H0.617188Z" fill="url(#paint2_linear_504_1598)"/>
<path d="M27.562 6.82812C23.9898 6.82812 21.0942 9.72408 21.0942 13.2963V18.1276H17.6133V24.1094L21.0942 27.2271V40.998C25.2864 40.9777 29.4783 40.7446 33.6646 40.298C37.1614 39.9248 39.9229 37.163 40.296 33.6662C40.9923 27.1417 41.1703 20.6028 40.8303 14.0708L33.5876 6.82812H27.562Z" fill="url(#paint3_linear_504_1598)"/>
<path d="M21.0942 40.998C23.4831 40.9864 25.8717 40.9054 28.2593 40.7553V24.1094H33.0133L33.5876 18.1276H28.2593V14.3292C28.2593 13.4902 28.9393 12.8102 29.7783 12.8102H33.5876V6.82812H27.5621C23.9898 6.82812 21.0942 9.72408 21.0942 13.2963V18.1276H17.6133V24.1094H21.0942V40.998Z" fill="white"/>
</g>
<defs>
<linearGradient id="paint0_linear_504_1598" x1="13.6128" y1="5.76452" x2="23.9829" y2="27.9517" gradientUnits="userSpaceOnUse">
<stop stop-color="#3457A0"/>
<stop offset="1" stop-color="#3B5998"/>
</linearGradient>
<linearGradient id="paint1_linear_504_1598" x1="28.2771" y1="25.8435" x2="-7.5636" y2="1.21748" gradientUnits="userSpaceOnUse">
<stop stop-color="#3457A0" stop-opacity="0"/>
<stop offset="1" stop-color="#1F3F77"/>
</linearGradient>
<linearGradient id="paint2_linear_504_1598" x1="20.5029" y1="34.2633" x2="20.5029" y2="39.8114" gradientUnits="userSpaceOnUse">
<stop stop-color="#3457A0" stop-opacity="0"/>
<stop offset="1" stop-color="#1F3F77"/>
</linearGradient>
<linearGradient id="paint3_linear_504_1598" x1="47.0661" y1="33.8593" x2="18.6087" y2="19.51" gradientUnits="userSpaceOnUse">
<stop stop-color="#3457A0" stop-opacity="0"/>
<stop offset="0.3251" stop-color="#2A4C8D" stop-opacity="0.32549"/>
<stop offset="0.7045" stop-color="#22427D" stop-opacity="0.705882"/>
<stop offset="1" stop-color="#1F3F77"/>
</linearGradient>
<clipPath id="clip0_504_1598">
<rect width="41" height="41" fill="white"/>
</clipPath>
</defs>
</svg>
