<svg width="44" height="44" viewBox="0 0 44 44" fill="none" xmlns="http://www.w3.org/2000/svg">
<g clip-path="url(#clip0_504_913)">
<path d="M43.2467 7.86999C42.8462 4.11761 39.8827 1.15344 36.13 0.753296C26.7192 -0.251099 17.2808 -0.251099 7.87033 0.753296C4.11761 1.15378 1.15378 4.11761 0.753296 7.86999C-0.251099 17.2805 -0.251099 26.7192 0.753296 36.1297C1.15378 39.8824 4.11761 42.8462 7.86999 43.2467C17.2805 44.2511 26.7192 44.2511 36.13 43.2467C39.8827 42.8462 42.8462 39.8824 43.2467 36.1297C44.2511 26.7192 44.2511 17.2808 43.2467 7.86999Z" fill="url(#paint0_radial_504_913)"/>
<path d="M40.8522 9.46016C40.497 6.13042 37.8672 3.50026 34.5371 3.14476C26.1864 2.25383 17.8109 2.25383 9.46016 3.14476C6.13042 3.50026 3.50026 6.13042 3.14476 9.46016C2.25383 17.8109 2.25383 26.1864 3.14476 34.5368C3.50026 37.8669 6.13042 40.497 9.46016 40.8522C17.8109 41.7435 26.1864 41.7435 34.5368 40.8522C37.8669 40.497 40.497 37.8669 40.8522 34.5368C41.7435 26.1864 41.7435 17.8109 40.8522 9.46016Z" fill="url(#paint1_linear_504_913)"/>
<path d="M0.660156 35.2188C0.690369 35.5229 0.721588 35.827 0.75415 36.1312C1.15463 39.8835 4.11847 42.8474 7.87118 43.2479C17.2817 44.2523 26.7204 44.2523 36.1309 43.2479C39.8836 42.8474 42.8471 39.8835 43.2476 36.1312C43.2801 35.827 43.3113 35.5229 43.3419 35.2188H0.660156Z" fill="url(#paint2_linear_504_913)"/>
<path d="M43.2468 36.1298C43.7866 31.0732 44.0357 26.0086 43.9954 20.9447L33.938 10.8873C32.6815 9.45288 30.8463 8.55759 28.6898 8.48004C24.2549 8.32025 19.806 8.32831 15.3705 8.48071C11.6866 8.6076 9.11047 11.0837 8.44983 14.7229C8.33334 15.3654 8.26352 16.0164 8.17188 16.6636V27.3326C8.22256 27.6783 8.29709 28.0224 8.32025 28.3702C8.46796 30.5838 9.37769 32.4798 10.8343 33.7624L21.0689 43.9967C26.0915 44.032 31.1145 43.7822 36.1301 43.2468C39.8828 42.8463 42.8463 39.8825 43.2468 36.1298Z" fill="url(#paint3_linear_504_913)"/>
<path d="M43.2483 36.1306C42.8482 39.8827 39.8837 42.8472 36.1316 43.2473C31.1167 43.7824 26.0927 44.0325 21.0707 43.9973L10.8516 33.7781C12.0362 34.815 13.5804 35.4465 15.3723 35.5139C19.8069 35.6805 24.2568 35.6761 28.6913 35.5163C32.7022 35.3713 35.6046 32.4027 35.7298 28.3919C35.8634 24.1333 35.8634 19.8636 35.7298 15.605C35.6727 13.7546 35.0232 12.1265 33.9463 10.8945L43.9973 20.9455C44.0369 26.0088 43.7878 31.0741 43.2483 36.1306Z" fill="url(#paint4_linear_504_913)"/>
<path d="M27.1925 17.2362C25.9041 15.8333 24.0554 14.9531 22.0007 14.9531C18.1086 14.9531 14.9531 18.1086 14.9531 22.0007C14.9531 24.0554 15.8333 25.9041 17.2362 27.1925L33.5418 43.4981C34.4049 43.4229 35.2679 43.3393 36.1303 43.2474C39.8831 42.8469 42.8469 39.8831 43.2474 36.1303C43.3394 35.2679 43.4229 34.4049 43.4981 33.5418L27.1925 17.2362Z" fill="url(#paint5_linear_504_913)"/>
<path d="M43.9137 26.7384L30.7907 13.6158C30.4846 13.214 30.0022 12.9531 29.458 12.9531C28.5322 12.9531 27.7812 13.7037 27.7812 14.6299C27.7812 15.1741 28.0421 15.6565 28.4439 15.9626L43.679 31.1981C43.7824 29.7119 43.8606 28.2252 43.9137 26.7384Z" fill="url(#paint6_linear_504_913)"/>
<path d="M8.17188 16.6636C8.26352 16.0164 8.33334 15.3654 8.44983 14.7229C9.11014 11.0837 11.6866 8.6076 15.3705 8.48071C19.806 8.32831 24.2549 8.32025 28.6898 8.48004C32.6993 8.62439 35.6031 11.5933 35.7283 15.6041C35.8615 19.8631 35.8615 24.1324 35.7283 28.3914C35.6031 32.4022 32.7003 35.3708 28.6901 35.5154C24.2553 35.6756 19.8053 35.6796 15.3708 35.5131C11.3606 35.3624 8.58847 32.3868 8.32025 28.3699C8.29709 28.0224 8.22256 27.678 8.17188 27.3322C8.17188 23.7759 8.17188 20.2196 8.17188 16.6636ZM22.0038 33.1384C24.0334 33.1384 26.065 33.1992 28.0919 33.1243C31.2699 33.0065 33.2247 31.1098 33.2989 27.9348C33.3908 23.9787 33.3908 20.0171 33.2989 16.0607C33.2247 12.8864 31.2686 10.9454 28.0919 10.8779C24.0599 10.7926 20.0235 10.7933 15.9915 10.8779C12.839 10.944 10.8786 12.8457 10.793 15.9851C10.6842 19.9913 10.6842 24.0045 10.793 28.0107C10.8786 31.1497 12.839 33.0075 15.9919 33.1243C17.9933 33.1988 19.9997 33.1384 22.0038 33.1384Z" fill="url(#paint7_linear_504_913)"/>
<path d="M8.17188 16.6636C8.26352 16.0164 8.33334 15.3654 8.44983 14.7229C9.11014 11.0837 11.6866 8.6076 15.3705 8.48071C19.806 8.32831 24.2549 8.32025 28.6898 8.48004C32.6993 8.62439 35.6031 11.5933 35.7283 15.6041C35.8615 19.8631 35.8615 24.1324 35.7283 28.3914C35.6031 32.4022 32.7003 35.3708 28.6901 35.5154C24.2553 35.6756 19.8053 35.6796 15.3708 35.5131C11.3606 35.3624 8.58847 32.3868 8.32025 28.3699C8.29709 28.0224 8.22256 27.678 8.17188 27.3322C8.17188 23.7759 8.17188 20.2196 8.17188 16.6636ZM22.0038 33.1384C24.0334 33.1384 26.065 33.1992 28.0919 33.1243C31.2699 33.0065 33.2247 31.1098 33.2989 27.9348C33.3908 23.9787 33.3908 20.0172 33.2989 16.0607C33.2247 12.8864 31.2686 10.9454 28.0919 10.8779C24.0599 10.7926 20.0235 10.7933 15.9915 10.8779C12.839 10.944 10.8786 12.8457 10.793 15.9851C10.6842 19.9913 10.6842 24.0045 10.793 28.0107C10.8786 31.1498 12.839 33.0075 15.9919 33.1243C17.9933 33.1988 19.9997 33.1384 22.0038 33.1384Z" fill="white"/>
<path d="M22.0007 14.9531C18.1086 14.9531 14.9531 18.1083 14.9531 22.0003C14.9531 25.8927 18.1086 29.0479 22.0007 29.0479C25.893 29.0479 29.0482 25.8927 29.0482 22.0003C29.0482 18.1083 25.893 14.9531 22.0007 14.9531ZM22.0007 26.6215C19.4484 26.6215 17.3795 24.5526 17.3795 22.0003C17.3795 19.4481 19.4484 17.3792 22.0007 17.3792C24.5529 17.3792 26.6218 19.4481 26.6218 22.0003C26.6218 24.5526 24.5529 26.6215 22.0007 26.6215Z" fill="white"/>
<path d="M31.1345 14.6299C31.1345 15.5558 30.3839 16.3064 29.458 16.3064C28.5322 16.3064 27.7812 15.5558 27.7812 14.6299C27.7812 13.7037 28.5322 12.9531 29.458 12.9531C30.3839 12.9531 31.1345 13.7037 31.1345 14.6299Z" fill="white"/>
</g>
<defs>
<radialGradient id="paint0_radial_504_913" cx="0" cy="0" r="1" gradientUnits="userSpaceOnUse" gradientTransform="translate(9.01975 38.4525) scale(48.5243)">
<stop stop-color="#FAE100"/>
<stop offset="0.0544" stop-color="#FADC04"/>
<stop offset="0.1167" stop-color="#FBCE0E"/>
<stop offset="0.1829" stop-color="#FCB720"/>
<stop offset="0.2514" stop-color="#FE9838"/>
<stop offset="0.3054" stop-color="#FF7950"/>
<stop offset="0.4922" stop-color="#FF1C74"/>
<stop offset="1" stop-color="#6C1CD1"/>
</radialGradient>
<linearGradient id="paint1_linear_504_913" x1="16.8744" y1="19.1163" x2="-57.6668" y2="-22.8132" gradientUnits="userSpaceOnUse">
<stop stop-color="#A1B5D8" stop-opacity="0"/>
<stop offset="0.3094" stop-color="#90A2BD" stop-opacity="0.309804"/>
<stop offset="0.7554" stop-color="#7C8B9C" stop-opacity="0.756863"/>
<stop offset="1" stop-color="#748290"/>
</linearGradient>
<linearGradient id="paint2_linear_504_913" x1="22.0009" y1="38.842" x2="22.0009" y2="45.7005" gradientUnits="userSpaceOnUse">
<stop stop-color="#FAE100" stop-opacity="0"/>
<stop offset="0.3068" stop-color="#FCA800" stop-opacity="0.305882"/>
<stop offset="0.6275" stop-color="#FE7300" stop-opacity="0.627451"/>
<stop offset="0.8685" stop-color="#FF5200" stop-opacity="0.866667"/>
<stop offset="1" stop-color="#FF4500"/>
</linearGradient>
<linearGradient id="paint3_linear_504_913" x1="19.4969" y1="19.4347" x2="8.60765" y2="8.54539" gradientUnits="userSpaceOnUse">
<stop stop-color="#833AB4" stop-opacity="0"/>
<stop offset="1" stop-color="#833AB4"/>
</linearGradient>
<linearGradient id="paint4_linear_504_913" x1="30.157" y1="40.2441" x2="24.722" y2="14.6218" gradientUnits="userSpaceOnUse">
<stop stop-color="#833AB4" stop-opacity="0"/>
<stop offset="1" stop-color="#833AB4"/>
</linearGradient>
<linearGradient id="paint5_linear_504_913" x1="32.2242" y1="32.2242" x2="10.394" y2="10.394" gradientUnits="userSpaceOnUse">
<stop stop-color="#833AB4" stop-opacity="0"/>
<stop offset="1" stop-color="#833AB4"/>
</linearGradient>
<linearGradient id="paint6_linear_504_913" x1="33.8417" y1="19.0135" x2="26.6229" y2="11.7947" gradientUnits="userSpaceOnUse">
<stop stop-color="#833AB4" stop-opacity="0"/>
<stop offset="1" stop-color="#833AB4"/>
</linearGradient>
<linearGradient id="paint7_linear_504_913" x1="30.7363" y1="13.3247" x2="12.9373" y2="31.1237" gradientUnits="userSpaceOnUse">
<stop stop-color="#833AB4"/>
<stop offset="0.0922" stop-color="#9C3495"/>
<stop offset="0.2927" stop-color="#DC2546"/>
<stop offset="0.392" stop-color="#FD1D1D"/>
<stop offset="0.5589" stop-color="#FC6831"/>
<stop offset="0.6887" stop-color="#FC9B40"/>
<stop offset="0.7521" stop-color="#FCAF45"/>
<stop offset="0.7806" stop-color="#FDB750"/>
<stop offset="0.8656" stop-color="#FECB6A"/>
<stop offset="0.9415" stop-color="#FFD87A"/>
<stop offset="1" stop-color="#FFDC80"/>
</linearGradient>
<clipPath id="clip0_504_913">
<rect width="44" height="44" fill="white"/>
</clipPath>
</defs>
</svg>
