<svg width="44" height="45" viewBox="0 0 44 45" fill="none" xmlns="http://www.w3.org/2000/svg">
<g clip-path="url(#clip0_504_894)">
<path d="M36.13 44.2296C26.7195 45.2568 17.2805 45.2568 7.87 44.2296C4.11761 43.82 1.15378 40.7888 0.753296 36.9508C-0.251099 27.3264 -0.251099 17.6732 0.753296 8.04886C1.15378 4.2112 4.11761 1.18 7.87 0.770416C17.2805 -0.256805 26.7192 -0.256805 36.1297 0.770416C39.8824 1.18 42.8462 4.2112 43.2467 8.04886C44.2511 17.6732 44.2511 27.3264 43.2467 36.9508C42.8462 40.7888 39.8827 43.82 36.13 44.2296Z" fill="url(#paint0_linear_504_894)"/>
<path d="M40.8522 9.67747C40.497 6.27205 37.8672 3.58212 34.5371 3.21854C26.1864 2.30736 17.8109 2.30736 9.46016 3.21854C6.13042 3.58212 3.50026 6.27205 3.14476 9.67747C2.25383 18.218 2.25383 26.7839 3.14476 35.324C3.50026 38.7298 6.13042 41.4197 9.46016 41.783C17.8109 42.6945 26.1864 42.6945 34.5368 41.783C37.8669 41.4197 40.497 38.7298 40.8522 35.324C41.7435 26.7839 41.7435 18.218 40.8522 9.67747Z" fill="url(#paint1_linear_504_894)"/>
<path d="M0.660156 36.0156C0.690369 36.3267 0.721588 36.6377 0.75415 36.9488C1.15463 40.7864 4.11847 43.8176 7.87118 44.2272C17.2817 45.2544 26.7204 45.2544 36.1309 44.2272C39.8836 43.8176 42.8471 40.7864 43.2476 36.9488C43.2801 36.6377 43.3113 36.3267 43.3419 36.0156H0.660156Z" fill="url(#paint2_linear_504_894)"/>
<path d="M42.7736 38.9872L14.3793 9.9472C13.7452 9.10091 12.7475 8.55469 11.6246 8.55469C9.70917 8.55469 8.15625 10.1426 8.15625 12.1016C8.15625 13.2503 8.69067 14.2707 9.51816 14.9189L37.8137 43.8579C40.1008 43.0796 41.9236 41.2823 42.7736 38.9872Z" fill="url(#paint3_linear_504_894)"/>
<path d="M14.5376 17.9766H8.71094V36.4494L16.9784 44.9047C23.3639 45.1519 29.7539 44.9284 36.1307 44.2322C37.2455 44.1106 38.2899 43.756 39.2191 43.219L14.5376 17.9766Z" fill="url(#paint4_linear_504_894)"/>
<path d="M34.3231 19.523C33.2573 18.3279 31.7228 17.5781 30.0172 17.5781C27.3192 17.5781 25.578 18.5473 24.5417 19.4472L23.4 17.9757H18.0312V36.4485L26.3235 44.9293C29.5939 44.8204 32.8629 44.5877 36.1288 44.2313C39.8815 43.8217 42.845 40.7905 43.2455 36.9529C43.5134 34.3869 43.7091 31.8188 43.834 29.2501L34.3231 19.523Z" fill="url(#paint5_linear_504_894)"/>
<path d="M8.71094 17.9766H14.5372V36.4494H8.71094V17.9766Z" fill="white"/>
<path d="M30.0172 17.5781C25.7475 17.5781 23.872 20.0051 23.4 20.7439V17.9757H18.0312V36.4485H23.8579V27.1695C23.8579 24.4882 25.0647 22.4025 27.3538 22.4025C29.6425 22.4025 30.0172 24.9987 30.0172 28.1913V36.4485H35.8438V23.5372C35.8438 20.2461 33.2351 17.5781 30.0172 17.5781Z" fill="white"/>
<path d="M15.0927 12.1019C15.0927 14.0609 13.5401 15.6488 11.6246 15.6488C9.70917 15.6488 8.15625 14.0609 8.15625 12.1019C8.15625 10.1429 9.70917 8.55469 11.6246 8.55469C13.5401 8.55469 15.0927 10.1429 15.0927 12.1019Z" fill="white"/>
</g>
<defs>
<linearGradient id="paint0_linear_504_894" x1="14.6089" y1="6.32691" x2="26.1542" y2="30.4796" gradientUnits="userSpaceOnUse">
<stop stop-color="#0077B5"/>
<stop offset="1" stop-color="#0066B2"/>
</linearGradient>
<linearGradient id="paint1_linear_504_894" x1="31.3042" y1="27.6062" x2="-33.2561" y2="-6.25673" gradientUnits="userSpaceOnUse">
<stop stop-color="#0066B2" stop-opacity="0"/>
<stop offset="1" stop-color="#07485E"/>
</linearGradient>
<linearGradient id="paint2_linear_504_894" x1="22.0009" y1="36.5449" x2="22.0009" y2="45.9499" gradientUnits="userSpaceOnUse">
<stop stop-color="#0066B2" stop-opacity="0"/>
<stop offset="1" stop-color="#07485E"/>
</linearGradient>
<linearGradient id="paint3_linear_504_894" x1="23.3208" y1="24.0638" x2="6.49946" y2="7.61629" gradientUnits="userSpaceOnUse">
<stop stop-color="#0066B2" stop-opacity="0"/>
<stop offset="1" stop-color="#07485E"/>
</linearGradient>
<linearGradient id="paint4_linear_504_894" x1="32.9795" y1="39.6967" x2="-0.414312" y2="24.3912" gradientUnits="userSpaceOnUse">
<stop stop-color="#0066B2" stop-opacity="0"/>
<stop offset="1" stop-color="#07485E"/>
</linearGradient>
<linearGradient id="paint5_linear_504_894" x1="41.0366" y1="43.1784" x2="17.4386" y2="20.1047" gradientUnits="userSpaceOnUse">
<stop stop-color="#0066B2" stop-opacity="0"/>
<stop offset="1" stop-color="#07485E"/>
</linearGradient>
<clipPath id="clip0_504_894">
<rect width="44" height="45" fill="white"/>
</clipPath>
</defs>
</svg>
