<svg width="228" height="59" viewBox="0 0 228 59" fill="none" xmlns="http://www.w3.org/2000/svg">
<path d="M108.169 31.6632C107.212 32.3156 106.429 32.9245 105.82 33.4899C105.211 34.0553 104.776 34.6208 104.428 35.1862C104.124 35.7516 103.906 36.2735 103.776 36.8389C103.689 37.4043 103.602 37.9263 103.602 38.4917C103.602 39.1441 103.689 39.753 103.906 40.3184C104.124 40.8838 104.428 41.4057 104.907 41.7972C105.342 42.2321 105.951 42.5801 106.69 42.7975C107.429 43.0585 108.343 43.1455 109.387 43.1455H115.78L115.606 48.4517H109.474C107.603 48.4517 105.994 48.1907 104.646 47.7123C103.297 47.2338 102.21 46.5814 101.34 45.7116C100.47 44.8852 99.818 43.8414 99.4265 42.667C98.9916 41.4927 98.8176 40.1879 98.8176 38.7961C98.8176 37.9697 98.9046 37.1434 99.0351 36.317C99.1656 35.4906 99.4265 34.6643 99.818 33.8379C100.209 33.0115 100.731 32.1416 101.427 31.3153C102.08 30.4889 102.95 29.619 104.037 28.7926L99.0786 22.3556L101.427 17.8323H111.692C113.344 17.8323 114.562 18.2672 115.389 19.0936C116.215 19.92 116.65 20.9638 116.65 22.1381C116.65 22.4861 116.606 22.834 116.563 23.2255C116.519 23.6169 116.345 24.0519 116.128 24.5303C115.911 25.0087 115.563 25.5306 115.128 26.1395C114.693 26.705 114.127 27.3573 113.388 28.0967H116.824H119.39H121.956C122.696 28.0967 123.261 27.9228 123.609 27.5748C123.957 27.2269 124.131 26.6615 124.131 25.9221V21.8772H129.046V25.9221C129.046 26.6615 129.263 27.2269 129.741 27.5748C130.22 27.9228 130.829 28.0967 131.568 28.0967H132.438H133.308C134.047 28.0967 134.613 27.9228 134.961 27.5748C135.309 27.2269 135.483 26.6615 135.483 25.9221V9.35107H140.397V25.9221C140.397 26.6615 140.615 27.2269 141.093 27.5748C141.572 27.9228 142.181 28.0967 142.92 28.0967H143.572H146.138C146.878 28.0967 147.443 27.9228 147.791 27.5748C148.139 27.2269 148.313 26.6615 148.313 25.9221V21.8772H153.228V25.9221C153.228 26.6615 153.445 27.2269 153.924 27.5748C154.402 27.9228 155.011 28.0967 155.751 28.0967H156.62H160.274C161.013 28.0967 161.579 27.9228 161.883 27.5748C162.188 27.2269 162.362 26.6615 162.362 25.9221V21.8772H167.276V26.357C167.276 28.7057 166.711 30.4889 165.58 31.6632C164.449 32.8375 162.796 33.4464 160.665 33.4464H156.577H155.533C154.533 33.4464 153.663 33.316 152.836 33.0115C152.01 32.7071 151.271 32.0547 150.662 31.0978C150.009 32.0981 149.27 32.7071 148.531 33.0115C147.791 33.316 147.008 33.4464 146.138 33.4464H143.398H142.529C141.572 33.4464 140.658 33.316 139.832 33.0115C139.006 32.7071 138.266 32.0547 137.614 31.0978C137.005 32.0981 136.309 32.7071 135.57 33.0115C134.83 33.316 134.004 33.4464 133.177 33.4464H132.308H131.264C130.263 33.4464 129.394 33.316 128.567 33.0115C127.741 32.7071 127.001 32.0547 126.392 31.0978C125.74 32.0981 125.001 32.7071 124.261 33.0115C123.522 33.316 122.739 33.4464 121.869 33.4464H119.303H115.693C114.171 33.4464 112.823 33.3594 111.605 33.142C110.387 33.0985 109.213 32.5331 108.169 31.6632ZM110.909 14.1354H105.777V9.43806H110.909V14.1354ZM131.22 42.3626H126.523V37.8393H131.22V42.3626ZM125.218 42.3626H120.521V37.8393H125.218V42.3626ZM152.141 42.5366H147.008V37.8393H152.141V42.5366ZM161.057 17.7888H156.359V13.2655H161.057V17.7888ZM167.059 17.7888H162.362V13.2655H167.059V17.7888ZM111.17 23.6169C111.17 23.1385 110.822 22.921 110.082 22.921H104.994L108.386 27.1834C109.474 26.3135 110.213 25.6176 110.604 25.0087C110.952 24.3998 111.17 23.9214 111.17 23.6169Z" fill="#373435"/>
<path d="M85.7255 14.1353H80.5933V9.43805H85.7255V14.1353ZM26.705 28.2707C28.1402 28.2707 28.8361 27.5313 28.8361 26.096V22.0511H33.7509V26.096C33.7509 26.8354 33.9684 27.4008 34.4468 27.7488C34.8817 28.0967 35.4471 28.2707 36.0995 28.2707C36.9694 28.2707 37.5783 28.0967 37.9263 27.7488C38.2742 27.4008 38.4917 26.8354 38.4917 26.096V22.0511H43.3629V26.096C43.3629 26.8354 43.5369 27.4008 43.9284 27.7488C44.3198 28.0967 44.7547 28.2707 45.2767 28.2707C46.538 28.2707 47.1904 27.5313 47.1904 26.096V22.0511H52.1051V26.531C52.1051 28.8796 51.5397 30.6628 50.4089 31.8372C49.2781 33.0115 47.6253 33.6204 45.4941 33.6204C44.6678 33.6204 43.8414 33.4899 43.015 33.1855C42.1886 32.881 41.4492 32.2286 40.8403 31.2718C40.1879 32.2721 39.4485 32.881 38.6222 33.1855C37.7958 33.4899 36.9694 33.6204 36.0995 33.6204C35.1427 33.6204 34.2293 33.4899 33.403 33.1855C32.5766 32.881 31.8372 32.2286 31.1848 31.2718C30.5324 32.2721 29.8365 32.881 29.0971 33.1855C28.3577 33.4899 27.5748 33.6204 26.705 33.6204H24.7478H21.7467C22.3121 34.0118 22.6166 34.8817 22.6166 36.1865C22.6166 36.8824 22.4426 37.6218 22.1382 38.4482C21.8337 39.2311 21.3118 39.9704 20.5724 40.6663C19.8765 41.3187 18.9196 41.8842 17.7453 42.3626C16.571 42.7975 15.1357 43.0585 13.4395 43.0585H9.13362C6.21956 43.0585 4.0014 42.1451 2.39214 40.3619C0.782882 38.5787 0 36.143 0 33.0115V25.9221H4.91476V32.7505C4.91476 33.4899 5.00174 34.1858 5.13223 34.7947C5.3062 35.4036 5.56716 35.9255 5.91511 36.3605C6.30655 36.7954 6.78498 37.0999 7.43738 37.3608C8.08978 37.5783 8.87266 37.7088 9.82952 37.7088H12.8306C13.8309 37.7088 14.6573 37.6653 15.3532 37.5783C16.0056 37.4913 16.5275 37.3608 16.9189 37.1869C17.3104 37.0129 17.5713 36.7519 17.7453 36.4475C17.9193 36.143 17.9628 35.7951 17.9628 35.3601C17.9628 34.9252 17.8323 34.5338 17.6148 34.1858C17.3974 33.8379 16.9189 33.6639 16.2665 33.6639H11.3083L11.5258 28.3577H24.7913L26.705 28.2707ZM61.9781 32.968C61.9781 34.2728 61.7172 35.5776 61.2388 36.7954C60.7603 38.0132 60.1079 39.1006 59.2381 40.0139C58.4117 40.9273 57.4113 41.6667 56.237 42.1886C55.1062 42.754 53.8449 43.015 52.4966 43.015H49.9305L49.7565 37.7088H51.2353C52.3226 37.7088 53.236 37.5783 53.9753 37.3173C54.7147 37.0564 55.3236 36.7084 55.7586 36.23C56.1935 35.7516 56.5415 35.2732 56.7154 34.7512C56.8894 34.1858 57.0199 33.6204 57.0199 33.0115V22.0946H61.9346V32.968H61.9781ZM71.8077 33.6204C71.0683 33.6204 70.3289 33.5334 69.6765 33.3159C69.0241 33.142 68.4152 32.794 67.8932 32.3156C67.3713 31.8372 66.9799 31.2283 66.6754 30.4889C66.371 29.706 66.2405 28.7926 66.2405 27.6183V9.52504H71.1987V26.357C71.1987 27.6618 71.7642 28.3142 72.895 28.3142H73.9388H75.4176C75.896 28.3142 76.331 28.3142 76.6354 28.3142C76.9399 28.3142 77.2443 28.3577 77.5488 28.4012C77.8098 28.4447 78.0707 28.5317 78.3317 28.5752C78.5926 28.6621 78.8971 28.7491 79.245 28.8796C78.2012 28.2272 77.5053 27.4443 77.1573 26.531C76.8529 25.6176 76.6789 24.4868 76.6789 23.095C76.6789 22.3991 76.8094 21.6597 77.0704 20.9203C77.3313 20.1809 77.7663 19.5285 78.2882 18.9196C78.8536 18.3107 79.506 17.8323 80.2889 17.4408C81.0718 17.0494 82.0286 16.8754 83.0725 16.8754C84.0728 16.8754 85.0297 17.0059 85.856 17.2669C86.6824 17.5278 87.4218 17.9628 88.0307 18.5282C88.6396 19.1371 89.0745 19.92 89.4225 20.8768C89.7704 21.8772 89.9444 23.095 89.9444 24.5303V26.6615C89.9444 28.7926 89.3355 30.4889 88.1177 31.7067C86.8999 32.9245 85.0297 33.5334 82.4201 33.5334H73.8953L71.8077 33.6204ZM83.029 22.3121C82.3331 22.3121 81.8546 22.5296 81.5937 22.921C81.3327 23.3559 81.2022 23.7474 81.2022 24.1823C81.2022 24.4433 81.2457 24.7042 81.3327 24.9217C81.4197 25.1827 81.5937 25.4436 81.8546 25.7046C82.1156 26.0091 82.507 26.3135 82.9855 26.618C83.5074 26.9659 84.1598 27.3573 84.9862 27.7923C85.1166 27.5748 85.2036 27.2704 85.2036 26.8789C85.2471 26.4875 85.2471 26.1395 85.2471 25.8351V24.9652C85.2471 24.6173 85.2036 24.2693 85.1601 23.9214C85.1166 23.5734 84.9862 23.3125 84.8122 23.0515C84.6382 22.7905 84.4207 22.6166 84.1163 22.4426C83.8553 22.3991 83.4639 22.3121 83.029 22.3121Z" fill="#373435"/>
<path d="M192.772 12.4826C193.084 12.4826 193.337 12.2294 193.337 11.9172C193.337 11.6049 193.084 11.3517 192.772 11.3517C192.46 11.3517 192.207 11.6049 192.207 11.9172C192.207 12.2294 192.46 12.4826 192.772 12.4826Z" fill="#ED3237"/>
<path d="M187.9 15.3097C188.212 15.3097 188.465 15.0566 188.465 14.7443C188.465 14.432 188.212 14.1789 187.9 14.1789C187.588 14.1789 187.335 14.432 187.335 14.7443C187.335 15.0566 187.588 15.3097 187.9 15.3097Z" fill="#ED3237"/>
<path d="M182.986 18.1367C183.298 18.1367 183.551 17.8836 183.551 17.5713C183.551 17.2591 183.298 17.0059 182.986 17.0059C182.674 17.0059 182.42 17.2591 182.42 17.5713C182.42 17.8836 182.674 18.1367 182.986 18.1367Z" fill="#ED3237"/>
<path d="M178.07 21.0074C178.382 21.0074 178.636 20.7542 178.636 20.4419C178.636 20.1297 178.382 19.8765 178.07 19.8765C177.758 19.8765 177.505 20.1297 177.505 20.4419C177.505 20.7542 177.758 21.0074 178.07 21.0074Z" fill="#ED3237"/>
<path d="M207.56 3.91439C207.872 3.91439 208.125 3.66125 208.125 3.34898C208.125 3.03671 207.872 2.78357 207.56 2.78357C207.247 2.78357 206.994 3.03671 206.994 3.34898C206.994 3.66125 207.247 3.91439 207.56 3.91439Z" fill="#ED3237"/>
<path d="M202.645 6.74154C202.957 6.74154 203.21 6.4884 203.21 6.17613C203.21 5.86386 202.957 5.61072 202.645 5.61072C202.332 5.61072 202.079 5.86386 202.079 6.17613C202.079 6.4884 202.332 6.74154 202.645 6.74154Z" fill="#ED3237"/>
<path d="M197.73 9.61209C198.042 9.61209 198.295 9.35895 198.295 9.04668C198.295 8.73441 198.042 8.48126 197.73 8.48126C197.417 8.48126 197.164 8.73441 197.164 9.04668C197.164 9.35895 197.417 9.61209 197.73 9.61209Z" fill="#ED3237"/>
<path d="M187.9 9.61209C188.212 9.61209 188.465 9.35895 188.465 9.04668C188.465 8.73441 188.212 8.48126 187.9 8.48126C187.588 8.48126 187.335 8.73441 187.335 9.04668C187.335 9.35895 187.588 9.61209 187.9 9.61209Z" fill="#ED3237"/>
<path d="M182.986 12.4826C183.298 12.4826 183.551 12.2294 183.551 11.9172C183.551 11.6049 183.298 11.3517 182.986 11.3517C182.674 11.3517 182.42 11.6049 182.42 11.9172C182.42 12.2294 182.674 12.4826 182.986 12.4826Z" fill="#ED3237"/>
<path d="M202.645 1.13083C202.957 1.13083 203.21 0.877686 203.21 0.565416C203.21 0.253146 202.957 0 202.645 0C202.332 0 202.079 0.253146 202.079 0.565416C202.079 0.877686 202.332 1.13083 202.645 1.13083Z" fill="#ED3237"/>
<path d="M197.73 3.91439C198.042 3.91439 198.295 3.66125 198.295 3.34898C198.295 3.03671 198.042 2.78357 197.73 2.78357C197.417 2.78357 197.164 3.03671 197.164 3.34898C197.164 3.66125 197.417 3.91439 197.73 3.91439Z" fill="#ED3237"/>
<path d="M192.815 6.78495C193.127 6.78495 193.38 6.5318 193.38 6.21953C193.38 5.90726 193.127 5.65411 192.815 5.65411C192.503 5.65411 192.25 5.90726 192.25 6.21953C192.25 6.5318 192.503 6.78495 192.815 6.78495Z" fill="#ED3237"/>
<path d="M178.027 15.3097C178.34 15.3097 178.593 15.0566 178.593 14.7443C178.593 14.432 178.34 14.1789 178.027 14.1789C177.715 14.1789 177.462 14.432 177.462 14.7443C177.462 15.0566 177.715 15.3097 178.027 15.3097Z" fill="#ED3237"/>
<path d="M178.07 32.4026C178.382 32.4026 178.636 32.1495 178.636 31.8372C178.636 31.5249 178.382 31.2718 178.07 31.2718C177.758 31.2718 177.505 31.5249 177.505 31.8372C177.505 32.1495 177.758 32.4026 178.07 32.4026Z" fill="#ED3237"/>
<path d="M178.027 26.705C178.34 26.705 178.593 26.4518 178.593 26.1396C178.593 25.8273 178.34 25.5742 178.027 25.5742C177.715 25.5742 177.462 25.8273 177.462 26.1396C177.462 26.4518 177.715 26.705 178.027 26.705Z" fill="#ED3237"/>
<path d="M178.027 43.7109C178.34 43.7109 178.593 43.4578 178.593 43.1455C178.593 42.8332 178.34 42.5801 178.027 42.5801C177.715 42.5801 177.462 42.8332 177.462 43.1455C177.462 43.4578 177.715 43.7109 178.027 43.7109Z" fill="#ED3237"/>
<path d="M178.07 38.0568C178.382 38.0568 178.636 37.8036 178.636 37.4914C178.636 37.1791 178.382 36.926 178.07 36.926C177.758 36.926 177.505 37.1791 177.505 37.4914C177.505 37.8036 177.758 38.0568 178.07 38.0568Z" fill="#ED3237"/>
<path d="M227.305 21.0074C227.617 21.0074 227.87 20.7542 227.87 20.4419C227.87 20.1297 227.617 19.8765 227.305 19.8765C226.993 19.8765 226.74 20.1297 226.74 20.4419C226.74 20.7542 226.993 21.0074 227.305 21.0074Z" fill="#ED3237"/>
<path d="M227.305 15.3097C227.617 15.3097 227.87 15.0566 227.87 14.7443C227.87 14.432 227.617 14.1789 227.305 14.1789C226.993 14.1789 226.74 14.432 226.74 14.7443C226.74 15.0566 226.993 15.3097 227.305 15.3097Z" fill="#ED3237"/>
<path d="M227.305 32.4026C227.617 32.4026 227.87 32.1495 227.87 31.8372C227.87 31.5249 227.617 31.2718 227.305 31.2718C226.993 31.2718 226.74 31.5249 226.74 31.8372C226.74 32.1495 226.993 32.4026 227.305 32.4026Z" fill="#ED3237"/>
<path d="M227.305 26.705C227.617 26.705 227.87 26.4518 227.87 26.1396C227.87 25.8273 227.617 25.5742 227.305 25.5742C226.993 25.5742 226.74 25.8273 226.74 26.1396C226.74 26.4518 226.993 26.705 227.305 26.705Z" fill="#ED3237"/>
<path d="M227.305 43.7109C227.617 43.7109 227.87 43.4578 227.87 43.1455C227.87 42.8332 227.617 42.5801 227.305 42.5801C226.993 42.5801 226.74 42.8332 226.74 43.1455C226.74 43.4578 226.993 43.7109 227.305 43.7109Z" fill="#ED3237"/>
<path d="M227.348 38.0568C227.661 38.0568 227.914 37.8036 227.914 37.4914C227.914 37.1791 227.661 36.926 227.348 36.926C227.036 36.926 226.783 37.1791 226.783 37.4914C226.783 37.8036 227.036 38.0568 227.348 38.0568Z" fill="#ED3237"/>
<path d="M217.389 9.61209C217.702 9.61209 217.955 9.35895 217.955 9.04668C217.955 8.73441 217.702 8.48126 217.389 8.48126C217.077 8.48126 216.824 8.73441 216.824 9.04668C216.824 9.35895 217.077 9.61209 217.389 9.61209Z" fill="#ED3237"/>
<path d="M212.474 6.78495C212.787 6.78495 213.04 6.5318 213.04 6.21953C213.04 5.90726 212.787 5.65411 212.474 5.65411C212.162 5.65411 211.909 5.90726 211.909 6.21953C211.909 6.5318 212.162 6.78495 212.474 6.78495Z" fill="#ED3237"/>
<path d="M222.347 12.4826C222.659 12.4826 222.913 12.2294 222.913 11.9172C222.913 11.6049 222.659 11.3517 222.347 11.3517C222.035 11.3517 221.782 11.6049 221.782 11.9172C221.782 12.2294 222.035 12.4826 222.347 12.4826Z" fill="#ED3237"/>
<path d="M212.474 12.4392C212.787 12.4392 213.04 12.186 213.04 11.8738C213.04 11.5615 212.787 11.3083 212.474 11.3083C212.162 11.3083 211.909 11.5615 211.909 11.8738C211.909 12.186 212.162 12.4392 212.474 12.4392Z" fill="#ED3237"/>
<path d="M207.56 9.65554C207.872 9.65554 208.125 9.40241 208.125 9.09014C208.125 8.77787 207.872 8.52472 207.56 8.52472C207.247 8.52472 206.994 8.77787 206.994 9.09014C206.994 9.40241 207.247 9.65554 207.56 9.65554Z" fill="#ED3237"/>
<path d="M217.346 15.3532C217.658 15.3532 217.911 15.1 217.911 14.7878C217.911 14.4755 217.658 14.2224 217.346 14.2224C217.033 14.2224 216.78 14.4755 216.78 14.7878C216.78 15.1 217.033 15.3532 217.346 15.3532Z" fill="#ED3237"/>
<path d="M222.347 18.1367C222.659 18.1367 222.913 17.8836 222.913 17.5713C222.913 17.2591 222.659 17.0059 222.347 17.0059C222.035 17.0059 221.782 17.2591 221.782 17.5713C221.782 17.8836 222.035 18.1367 222.347 18.1367Z" fill="#ED3237"/>
<path d="M202.688 12.9175C203.241 12.9175 203.689 12.4696 203.689 11.9172C203.689 11.3647 203.241 10.9168 202.688 10.9168C202.136 10.9168 201.688 11.3647 201.688 11.9172C201.688 12.4696 202.136 12.9175 202.688 12.9175Z" fill="#ED3237"/>
<path d="M202.644 19.3546C203.557 19.3546 204.297 18.6146 204.297 17.7018C204.297 16.789 203.557 16.0491 202.644 16.0491C201.731 16.0491 200.991 16.789 200.991 17.7018C200.991 18.6146 201.731 19.3546 202.644 19.3546Z" fill="#ED3237"/>
<path d="M182.986 40.9708C183.298 40.9708 183.551 40.7177 183.551 40.4054C183.551 40.0931 183.298 39.84 182.986 39.84C182.674 39.84 182.42 40.0931 182.42 40.4054C182.42 40.7177 182.674 40.9708 182.986 40.9708Z" fill="#ED3237"/>
<path d="M192.815 40.9708C193.127 40.9708 193.38 40.7177 193.38 40.4054C193.38 40.0931 193.127 39.84 192.815 39.84C192.503 39.84 192.25 40.0931 192.25 40.4054C192.25 40.7177 192.503 40.9708 192.815 40.9708Z" fill="#ED3237"/>
<path d="M187.9 43.7979C188.212 43.7979 188.465 43.5448 188.465 43.2325C188.465 42.9203 188.212 42.6671 187.9 42.6671C187.588 42.6671 187.335 42.9203 187.335 43.2325C187.335 43.5448 187.588 43.7979 187.9 43.7979Z" fill="#ED3237"/>
<path d="M182.986 46.625C183.298 46.625 183.551 46.3718 183.551 46.0596C183.551 45.7473 183.298 45.4941 182.986 45.4941C182.674 45.4941 182.42 45.7473 182.42 46.0596C182.42 46.3718 182.674 46.625 182.986 46.625Z" fill="#ED3237"/>
<path d="M192.815 46.7119C193.127 46.7119 193.38 46.4588 193.38 46.1465C193.38 45.8343 193.127 45.5811 192.815 45.5811C192.503 45.5811 192.25 45.8343 192.25 46.1465C192.25 46.4588 192.503 46.7119 192.815 46.7119Z" fill="#ED3237"/>
<path d="M187.9 49.4955C188.212 49.4955 188.465 49.2424 188.465 48.9301C188.465 48.6178 188.212 48.3647 187.9 48.3647C187.588 48.3647 187.335 48.6178 187.335 48.9301C187.335 49.2424 187.588 49.4955 187.9 49.4955Z" fill="#ED3237"/>
<path d="M192.815 52.4096C193.127 52.4096 193.38 52.1564 193.38 51.8442C193.38 51.5319 193.127 51.2787 192.815 51.2787C192.503 51.2787 192.25 51.5319 192.25 51.8442C192.25 52.1564 192.503 52.4096 192.815 52.4096Z" fill="#ED3237"/>
<path d="M197.73 49.4955C198.042 49.4955 198.295 49.2424 198.295 48.9301C198.295 48.6178 198.042 48.3647 197.73 48.3647C197.417 48.3647 197.164 48.6178 197.164 48.9301C197.164 49.2424 197.417 49.4955 197.73 49.4955Z" fill="#ED3237"/>
<path d="M212.431 40.8839C212.743 40.8839 212.996 40.6307 212.996 40.3185C212.996 40.0062 212.743 39.7531 212.431 39.7531C212.119 39.7531 211.865 40.0062 211.865 40.3185C211.865 40.6307 212.119 40.8839 212.431 40.8839Z" fill="#ED3237"/>
<path d="M212.474 46.538C212.787 46.538 213.04 46.2848 213.04 45.9726C213.04 45.6603 212.787 45.4072 212.474 45.4072C212.162 45.4072 211.909 45.6603 211.909 45.9726C211.909 46.2848 212.162 46.538 212.474 46.538Z" fill="#ED3237"/>
<path d="M217.432 43.7544C217.745 43.7544 217.998 43.5013 217.998 43.189C217.998 42.8767 217.745 42.6236 217.432 42.6236C217.12 42.6236 216.867 42.8767 216.867 43.189C216.867 43.5013 217.12 43.7544 217.432 43.7544Z" fill="#ED3237"/>
<path d="M222.347 46.625C222.659 46.625 222.913 46.3718 222.913 46.0596C222.913 45.7473 222.659 45.4941 222.347 45.4941C222.035 45.4941 221.782 45.7473 221.782 46.0596C221.782 46.3718 222.035 46.625 222.347 46.625Z" fill="#ED3237"/>
<path d="M217.432 49.4085C217.745 49.4085 217.998 49.1554 217.998 48.8431C217.998 48.5308 217.745 48.2777 217.432 48.2777C217.12 48.2777 216.867 48.5308 216.867 48.8431C216.867 49.1554 217.12 49.4085 217.432 49.4085Z" fill="#ED3237"/>
<path d="M197.73 55.2802C198.042 55.2802 198.295 55.027 198.295 54.7148C198.295 54.4025 198.042 54.1494 197.73 54.1494C197.417 54.1494 197.164 54.4025 197.164 54.7148C197.164 55.027 197.417 55.2802 197.73 55.2802Z" fill="#ED3237"/>
<path d="M207.56 49.539C207.872 49.539 208.125 49.2859 208.125 48.9736C208.125 48.6613 207.872 48.4082 207.56 48.4082C207.247 48.4082 206.994 48.6613 206.994 48.9736C206.994 49.2859 207.247 49.539 207.56 49.539Z" fill="#ED3237"/>
<path d="M202.645 52.4096C202.957 52.4096 203.21 52.1564 203.21 51.8442C203.21 51.5319 202.957 51.2787 202.645 51.2787C202.332 51.2787 202.079 51.5319 202.079 51.8442C202.079 52.1564 202.332 52.4096 202.645 52.4096Z" fill="#ED3237"/>
<path d="M202.601 58.0202C202.913 58.0202 203.166 57.7671 203.166 57.4548C203.166 57.1425 202.913 56.8894 202.601 56.8894C202.289 56.8894 202.036 57.1425 202.036 57.4548C202.036 57.7671 202.289 58.0202 202.601 58.0202Z" fill="#ED3237"/>
<path d="M212.431 52.2791C212.743 52.2791 212.996 52.026 212.996 51.7137C212.996 51.4015 212.743 51.1483 212.431 51.1483C212.119 51.1483 211.865 51.4015 211.865 51.7137C211.865 52.026 212.119 52.2791 212.431 52.2791Z" fill="#ED3237"/>
<path d="M207.516 55.1497C207.828 55.1497 208.081 54.8966 208.081 54.5843C208.081 54.272 207.828 54.0189 207.516 54.0189C207.204 54.0189 206.951 54.272 206.951 54.5843C206.951 54.8966 207.204 55.1497 207.516 55.1497Z" fill="#ED3237"/>
<path d="M222.347 40.9273C222.659 40.9273 222.913 40.6742 222.913 40.3619C222.913 40.0496 222.659 39.7965 222.347 39.7965C222.035 39.7965 221.782 40.0496 221.782 40.3619C221.782 40.6742 222.035 40.9273 222.347 40.9273Z" fill="#ED3237"/>
<path d="M202.644 24.8347C203.557 24.8347 204.297 24.0948 204.297 23.182C204.297 22.2692 203.557 21.5292 202.644 21.5292C201.731 21.5292 200.991 22.2692 200.991 23.182C200.991 24.0948 201.731 24.8347 202.644 24.8347Z" fill="#ED3237"/>
<path d="M207.515 22.2686C208.428 22.2686 209.168 21.5287 209.168 20.6159C209.168 19.7031 208.428 18.9631 207.515 18.9631C206.603 18.9631 205.863 19.7031 205.863 20.6159C205.863 21.5287 206.603 22.2686 207.515 22.2686Z" fill="#ED3237"/>
<path d="M207.515 27.7923C208.428 27.7923 209.168 27.0524 209.168 26.1396C209.168 25.2268 208.428 24.4868 207.515 24.4868C206.603 24.4868 205.863 25.2268 205.863 26.1396C205.863 27.0524 206.603 27.7923 207.515 27.7923Z" fill="#ED3237"/>
<path d="M212.474 25.0522C213.387 25.0522 214.127 24.3122 214.127 23.3995C214.127 22.4867 213.387 21.7467 212.474 21.7467C211.561 21.7467 210.821 22.4867 210.821 23.3995C210.821 24.3122 211.561 25.0522 212.474 25.0522Z" fill="#ED3237"/>
<path d="M212.474 30.5759C213.387 30.5759 214.127 29.8359 214.127 28.9231C214.127 28.0104 213.387 27.2704 212.474 27.2704C211.561 27.2704 210.821 28.0104 210.821 28.9231C210.821 29.8359 211.561 30.5759 212.474 30.5759Z" fill="#ED3237"/>
<path d="M217.389 27.8358C218.302 27.8358 219.042 27.0958 219.042 26.183C219.042 25.2702 218.302 24.5303 217.389 24.5303C216.476 24.5303 215.736 25.2702 215.736 26.183C215.736 27.0958 216.476 27.8358 217.389 27.8358Z" fill="#ED3237"/>
<path d="M217.389 33.3595C218.302 33.3595 219.042 32.6195 219.042 31.7067C219.042 30.7939 218.302 30.054 217.389 30.054C216.476 30.054 215.736 30.7939 215.736 31.7067C215.736 32.6195 216.476 33.3595 217.389 33.3595Z" fill="#ED3237"/>
<path d="M187.814 27.8358C188.726 27.8358 189.466 27.0958 189.466 26.183C189.466 25.2702 188.726 24.5303 187.814 24.5303C186.901 24.5303 186.161 25.2702 186.161 26.183C186.161 27.0958 186.901 27.8358 187.814 27.8358Z" fill="#ED3237"/>
<path d="M187.814 33.3595C188.726 33.3595 189.466 32.6195 189.466 31.7067C189.466 30.7939 188.726 30.054 187.814 30.054C186.901 30.054 186.161 30.7939 186.161 31.7067C186.161 32.6195 186.901 33.3595 187.814 33.3595Z" fill="#ED3237"/>
<path d="M192.728 25.0957C193.641 25.0957 194.381 24.3558 194.381 23.443C194.381 22.5302 193.641 21.7902 192.728 21.7902C191.815 21.7902 191.075 22.5302 191.075 23.443C191.075 24.3558 191.815 25.0957 192.728 25.0957Z" fill="#ED3237"/>
<path d="M192.728 30.6194C193.641 30.6194 194.381 29.8794 194.381 28.9666C194.381 28.0539 193.641 27.3139 192.728 27.3139C191.815 27.3139 191.075 28.0539 191.075 28.9666C191.075 29.8794 191.815 30.6194 192.728 30.6194Z" fill="#ED3237"/>
<path d="M197.686 22.3556C198.599 22.3556 199.339 21.6157 199.339 20.7029C199.339 19.7901 198.599 19.0501 197.686 19.0501C196.774 19.0501 196.034 19.7901 196.034 20.7029C196.034 21.6157 196.774 22.3556 197.686 22.3556Z" fill="#ED3237"/>
<path d="M197.686 27.8793C198.599 27.8793 199.339 27.1393 199.339 26.2265C199.339 25.3138 198.599 24.5738 197.686 24.5738C196.774 24.5738 196.034 25.3138 196.034 26.2265C196.034 27.1393 196.774 27.8793 197.686 27.8793Z" fill="#ED3237"/>
<path d="M197.643 15.7881C198.195 15.7881 198.643 15.3402 198.643 14.7878C198.643 14.2353 198.195 13.7874 197.643 13.7874C197.09 13.7874 196.642 14.2353 196.642 14.7878C196.642 15.3402 197.09 15.7881 197.643 15.7881Z" fill="#ED3237"/>
<path d="M207.603 15.7881C208.156 15.7881 208.604 15.3402 208.604 14.7878C208.604 14.2353 208.156 13.7874 207.603 13.7874C207.051 13.7874 206.603 14.2353 206.603 14.7878C206.603 15.3402 207.051 15.7881 207.603 15.7881Z" fill="#ED3237"/>
<path d="M212.517 18.4847C213.07 18.4847 213.518 18.0368 213.518 17.4844C213.518 16.9319 213.07 16.484 212.517 16.484C211.965 16.484 211.517 16.9319 211.517 17.4844C211.517 18.0368 211.965 18.4847 212.517 18.4847Z" fill="#ED3237"/>
<path d="M217.432 21.3988C217.985 21.3988 218.433 20.9509 218.433 20.3984C218.433 19.8459 217.985 19.3981 217.432 19.3981C216.88 19.3981 216.432 19.8459 216.432 20.3984C216.432 20.9509 216.88 21.3988 217.432 21.3988Z" fill="#ED3237"/>
<path d="M222.391 24.2694C222.943 24.2694 223.391 23.8215 223.391 23.269C223.391 22.7165 222.943 22.2687 222.391 22.2687C221.838 22.2687 221.391 22.7165 221.391 23.269C221.391 23.8215 221.838 24.2694 222.391 24.2694Z" fill="#ED3237"/>
<path d="M222.391 30.0105C222.943 30.0105 223.391 29.5626 223.391 29.0102C223.391 28.4577 222.943 28.0098 222.391 28.0098C221.838 28.0098 221.391 28.4577 221.391 29.0102C221.391 29.5626 221.838 30.0105 222.391 30.0105Z" fill="#ED3237"/>
<path d="M222.391 35.6646C222.943 35.6646 223.391 35.2168 223.391 34.6643C223.391 34.1118 222.943 33.6639 222.391 33.6639C221.838 33.6639 221.391 34.1118 221.391 34.6643C221.391 35.2168 221.838 35.6646 222.391 35.6646Z" fill="#ED3237"/>
<path d="M217.432 38.4917C217.985 38.4917 218.433 38.0438 218.433 37.4914C218.433 36.9389 217.985 36.491 217.432 36.491C216.88 36.491 216.432 36.9389 216.432 37.4914C216.432 38.0438 216.88 38.4917 217.432 38.4917Z" fill="#ED3237"/>
<path d="M212.43 35.6211C212.983 35.6211 213.431 35.1732 213.431 34.6208C213.431 34.0683 212.983 33.6204 212.43 33.6204C211.878 33.6204 211.43 34.0683 211.43 34.6208C211.43 35.1732 211.878 35.6211 212.43 35.6211Z" fill="#ED3237"/>
<path d="M207.56 32.794C208.112 32.794 208.56 32.3462 208.56 31.7937C208.56 31.2412 208.112 30.7933 207.56 30.7933C207.007 30.7933 206.559 31.2412 206.559 31.7937C206.559 32.3462 207.007 32.794 207.56 32.794Z" fill="#ED3237"/>
<path d="M197.686 32.794C198.239 32.794 198.687 32.3462 198.687 31.7937C198.687 31.2412 198.239 30.7933 197.686 30.7933C197.134 30.7933 196.686 31.2412 196.686 31.7937C196.686 32.3462 197.134 32.794 197.686 32.794Z" fill="#ED3237"/>
<path d="M192.772 35.6211C193.325 35.6211 193.772 35.1732 193.772 34.6208C193.772 34.0683 193.325 33.6204 192.772 33.6204C192.22 33.6204 191.772 34.0683 191.772 34.6208C191.772 35.1732 192.22 35.6211 192.772 35.6211Z" fill="#ED3237"/>
<path d="M187.9 38.4917C188.453 38.4917 188.9 38.0438 188.9 37.4914C188.9 36.9389 188.453 36.491 187.9 36.491C187.348 36.491 186.9 36.9389 186.9 37.4914C186.9 38.0438 187.348 38.4917 187.9 38.4917Z" fill="#ED3237"/>
<path d="M182.899 24.2694C183.451 24.2694 183.899 23.8215 183.899 23.269C183.899 22.7165 183.451 22.2687 182.899 22.2687C182.346 22.2687 181.898 22.7165 181.898 23.269C181.898 23.8215 182.346 24.2694 182.899 24.2694Z" fill="#ED3237"/>
<path d="M182.899 30.0105C183.451 30.0105 183.899 29.5626 183.899 29.0102C183.899 28.4577 183.451 28.0098 182.899 28.0098C182.346 28.0098 181.898 28.4577 181.898 29.0102C181.898 29.5626 182.346 30.0105 182.899 30.0105Z" fill="#ED3237"/>
<path d="M182.899 35.6646C183.451 35.6646 183.899 35.2168 183.899 34.6643C183.899 34.1118 183.451 33.6639 182.899 33.6639C182.346 33.6639 181.898 34.1118 181.898 34.6643C181.898 35.2168 182.346 35.6646 182.899 35.6646Z" fill="#ED3237"/>
<path d="M192.728 18.4847C193.281 18.4847 193.729 18.0368 193.729 17.4844C193.729 16.9319 193.281 16.484 192.728 16.484C192.176 16.484 191.728 16.9319 191.728 17.4844C191.728 18.0368 192.176 18.4847 192.728 18.4847Z" fill="#ED3237"/>
<path d="M187.856 21.3988C188.409 21.3988 188.857 20.9509 188.857 20.3984C188.857 19.8459 188.409 19.3981 187.856 19.3981C187.304 19.3981 186.856 19.8459 186.856 20.3984C186.856 20.9509 187.304 21.3988 187.856 21.3988Z" fill="#ED3237"/>
<path d="M202.644 30.5759C203.557 30.5759 204.297 29.8359 204.297 28.9231C204.297 28.0104 203.557 27.2704 202.644 27.2704C201.731 27.2704 200.991 28.0104 200.991 28.9231C200.991 29.8359 201.731 30.5759 202.644 30.5759Z" fill="#ED3237"/>
<path d="M202.644 36.317C203.557 36.317 204.297 35.5771 204.297 34.6643C204.297 33.7515 203.557 33.0115 202.644 33.0115C201.731 33.0115 200.991 33.7515 200.991 34.6643C200.991 35.5771 201.731 36.317 202.644 36.317Z" fill="#ED3237"/>
<path d="M202.644 42.0581C203.557 42.0581 204.297 41.3182 204.297 40.4054C204.297 39.4926 203.557 38.7526 202.644 38.7526C201.731 38.7526 200.991 39.4926 200.991 40.4054C200.991 41.3182 201.731 42.0581 202.644 42.0581Z" fill="#ED3237"/>
<path d="M207.56 38.4482C208.112 38.4482 208.56 38.0003 208.56 37.4479C208.56 36.8954 208.112 36.4475 207.56 36.4475C207.007 36.4475 206.559 36.8954 206.559 37.4479C206.559 38.0003 207.007 38.4482 207.56 38.4482Z" fill="#ED3237"/>
<path d="M197.686 38.4482C198.239 38.4482 198.687 38.0003 198.687 37.4479C198.687 36.8954 198.239 36.4475 197.686 36.4475C197.134 36.4475 196.686 36.8954 196.686 37.4479C196.686 38.0003 197.134 38.4482 197.686 38.4482Z" fill="#ED3237"/>
<path d="M207.56 44.2329C208.112 44.2329 208.56 43.785 208.56 43.2325C208.56 42.6801 208.112 42.2322 207.56 42.2322C207.007 42.2322 206.559 42.6801 206.559 43.2325C206.559 43.785 207.007 44.2329 207.56 44.2329Z" fill="#ED3237"/>
<path d="M197.686 44.2329C198.239 44.2329 198.687 43.785 198.687 43.2325C198.687 42.6801 198.239 42.2322 197.686 42.2322C197.134 42.2322 196.686 42.6801 196.686 43.2325C196.686 43.785 197.134 44.2329 197.686 44.2329Z" fill="#ED3237"/>
<path d="M202.688 47.0599C203.241 47.0599 203.689 46.612 203.689 46.0596C203.689 45.5071 203.241 45.0592 202.688 45.0592C202.136 45.0592 201.688 45.5071 201.688 46.0596C201.688 46.612 202.136 47.0599 202.688 47.0599Z" fill="#ED3237"/>
</svg>
