<svg width="208" height="67" viewBox="0 0 208 67" fill="none" xmlns="http://www.w3.org/2000/svg">
<path d="M4.44614 63.2119C4.69728 63.2119 4.87048 63.1618 4.96528 63.0615C5.06031 62.9567 5.10772 62.8313 5.10772 62.6877C5.10772 62.592 5.08812 62.4872 5.04915 62.371C5.01565 62.2525 4.92358 62.1203 4.77271 61.9699L2.96368 60.1763V59.5861L5.74423 58.4922L5.87823 59.0346L3.50812 59.9598L5.01565 61.4685C5.15512 61.6075 5.26679 61.7329 5.35066 61.8445C5.43999 61.9562 5.50972 62.061 5.56009 62.1613C5.61023 62.2616 5.64373 62.3596 5.66059 62.453C5.67723 62.5487 5.68566 62.6467 5.68566 62.7538C5.68566 62.9316 5.65489 63.0866 5.59359 63.221C5.53776 63.3486 5.45663 63.4535 5.35066 63.5378C5.24446 63.6198 5.11888 63.6836 4.97371 63.7292C4.82855 63.768 4.66947 63.7862 4.49627 63.7862H1.30551C1.07648 63.7862 0.878209 63.7543 0.710706 63.6882C0.548901 63.6153 0.414897 63.5196 0.308697 63.4033C0.208196 63.2871 0.132993 63.1504 0.0826277 62.9954C0.0379602 62.8404 0.015625 62.6764 0.015625 62.5032V61.3865H0.551636V62.3778C0.551636 62.6285 0.615903 62.8313 0.744208 62.9863C0.872741 63.1367 1.09881 63.2119 1.42265 63.2119H4.44614Z" fill="#252525"/>
<path d="M7.87935 63.7898C7.73418 63.7898 7.59471 63.7715 7.46071 63.7328C7.3267 63.6872 7.2066 63.6166 7.10063 63.5163C7.00013 63.416 6.919 63.2861 6.85769 63.1243C6.79616 62.9579 6.76562 62.7508 6.76562 62.5069V58.6211H7.30984V62.4067C7.30984 62.6414 7.3602 62.8349 7.46071 62.9899C7.56668 63.1403 7.73714 63.2155 7.97165 63.2155H8.11385C8.23669 63.2155 8.29822 63.3089 8.29822 63.4981C8.29822 63.694 8.23669 63.7898 8.11385 63.7898H7.87935Z" fill="#252525"/>
<path d="M8.41556 63.2138C8.65007 63.2138 8.83147 63.1546 8.95978 63.0383C9.09378 62.9221 9.16078 62.7603 9.16078 62.5552V61.4043H9.70522V62.5552C9.70522 62.6783 9.72482 62.7808 9.76379 62.8629C9.80845 62.9472 9.86429 63.0156 9.93129 63.0725C10.004 63.1227 10.0822 63.1591 10.1658 63.1796C10.2551 63.2024 10.3445 63.2138 10.4338 63.2138C10.6963 63.2138 10.8946 63.1546 11.0286 63.0383C11.1681 62.9221 11.2378 62.7603 11.2378 62.5552V61.4043H11.7823V62.5552C11.7823 62.799 11.8493 62.9723 11.9833 63.0725C12.123 63.166 12.2793 63.2138 12.4523 63.2138C12.6644 63.2138 12.8319 63.1546 12.9548 63.0383C13.0833 62.9221 13.1476 62.7603 13.1476 62.5552V61.4043H13.6918V62.5552C13.6918 62.9495 13.5801 63.2548 13.3568 63.4713C13.1391 63.6833 12.8431 63.7881 12.4691 63.7881C12.2681 63.7881 12.081 63.7539 11.9081 63.681C11.7349 63.6035 11.5924 63.4577 11.4807 63.248C11.3579 63.4577 11.2016 63.6035 11.0117 63.681C10.8276 63.7539 10.6348 63.7881 10.4338 63.7881C10.2162 63.7881 10.0179 63.7539 9.83922 63.681C9.66055 63.6035 9.51538 63.4577 9.40371 63.248C9.28088 63.4577 9.13024 63.6035 8.95157 63.681C8.7729 63.7539 8.58306 63.7881 8.38206 63.7881H8.11405C8.04135 63.7881 7.99395 63.7676 7.97162 63.722C7.94359 63.6787 7.92969 63.6081 7.92969 63.5146C7.92969 63.4144 7.94359 63.3392 7.97162 63.289C7.99395 63.2389 8.04135 63.2138 8.11405 63.2138H8.41556ZM11.8493 59.3373H11.1792V58.7539H11.8493V59.3373ZM12.3771 60.3378H11.7071V59.7452H12.3771V60.3378ZM11.3132 60.3378H10.6432V59.7452H11.3132V60.3378Z" fill="#252525"/>
<path d="M15.3837 65.2427C15.6294 65.2427 15.8443 65.2039 16.0287 65.1264C16.2185 65.049 16.3776 64.9416 16.5061 64.8094C16.6344 64.675 16.7322 64.5202 16.7992 64.3425C16.8662 64.1693 16.9052 63.9867 16.9163 63.7907H16.0788C15.7942 63.7907 15.5597 63.7611 15.3753 63.6996C15.1912 63.6381 15.046 63.5494 14.9398 63.4332C14.8338 63.317 14.7584 63.1777 14.7137 63.0159C14.6748 62.8495 14.6552 62.6629 14.6552 62.4578C14.6552 62.2458 14.6859 62.0474 14.7472 61.8582C14.8088 61.669 14.8981 61.5027 15.0152 61.3568C15.1326 61.2133 15.2778 61.0993 15.4507 61.015C15.6294 60.9261 15.8332 60.8828 16.0622 60.8828C16.2463 60.8828 16.4223 60.9127 16.5898 60.9742C16.7573 61.0357 16.9052 61.1314 17.0337 61.2659C17.162 61.3935 17.2625 61.5622 17.3352 61.7741C17.4134 61.9792 17.4524 62.2299 17.4524 62.5239V63.2165H18.2564C18.3234 63.2165 18.368 63.2415 18.3904 63.2917C18.4184 63.335 18.4323 63.4056 18.4323 63.499C18.4323 63.5993 18.4184 63.6747 18.3904 63.7249C18.368 63.7705 18.3234 63.7907 18.2564 63.7907H17.4357C17.4246 64.0642 17.3687 64.322 17.2682 64.5681C17.1732 64.8119 17.0392 65.0259 16.8662 65.2083C16.693 65.3929 16.4865 65.5367 16.2463 65.6438C16.0064 65.7532 15.7356 65.8101 15.4341 65.8101H14.5462L14.4961 65.2427H15.3837ZM15.1743 62.4234C15.1743 62.5624 15.1884 62.6832 15.2162 62.7835C15.2497 62.8837 15.3028 62.966 15.3753 63.0344C15.4535 63.0936 15.557 63.1413 15.6853 63.1754C15.8138 63.2028 15.9756 63.2165 16.1711 63.2165H16.9248V62.592C16.9248 62.1795 16.8439 61.8858 16.6818 61.708C16.52 61.5303 16.2967 61.4414 16.0118 61.4414C15.7438 61.4414 15.5373 61.5303 15.3922 61.708C15.247 61.8858 15.1743 62.1248 15.1743 62.4234Z" fill="#252525"/>
<path d="M19.0161 63.2157C19.234 63.2157 19.4072 63.1565 19.5355 63.0403C19.6695 62.924 19.7365 62.7622 19.7365 62.5571V61.4062H20.281V62.5571C20.281 62.9514 20.1693 63.2568 19.946 63.4733C19.7281 63.6852 19.4295 63.79 19.0496 63.79H18.2625C18.1898 63.79 18.1424 63.7695 18.1201 63.724C18.0923 63.6807 18.0781 63.61 18.0781 63.5166C18.0781 63.4163 18.0923 63.3411 18.1201 63.2909C18.1424 63.2408 18.1898 63.2157 18.2625 63.2157H19.0161ZM19.5606 66.3516H18.8906V65.7591H19.5606V66.3516ZM20.0884 65.3511H19.4184V64.7586H20.0884V65.3511ZM19.0246 65.3511H18.3546V64.7586H19.0246V65.3511Z" fill="#252525"/>
<path d="M23.2548 65.2427C23.5005 65.2427 23.7156 65.2039 23.8998 65.1264C24.0896 65.049 24.2487 64.9416 24.3772 64.8094C24.5055 64.675 24.6033 64.5202 24.6703 64.3425C24.7373 64.1693 24.7765 63.9867 24.7877 63.7907H23.9501C23.6653 63.7907 23.4308 63.7611 23.2466 63.6996C23.0623 63.6381 22.9171 63.5494 22.8111 63.4332C22.7049 63.317 22.6295 63.1777 22.5848 63.0159C22.5459 62.8495 22.5263 62.6629 22.5263 62.4578C22.5263 62.2458 22.557 62.0474 22.6183 61.8582C22.6799 61.669 22.7692 61.5027 22.8863 61.3568C23.0037 61.2133 23.1489 61.0993 23.3218 61.015C23.5005 60.9261 23.7045 60.8828 23.9333 60.8828C24.1176 60.8828 24.2934 60.9127 24.4609 60.9742C24.6284 61.0357 24.7765 61.1314 24.9048 61.2659C25.0333 61.3935 25.1338 61.5622 25.2063 61.7741C25.2845 61.9792 25.3237 62.2299 25.3237 62.5239V63.6588C25.3237 63.9414 25.276 64.2146 25.1812 64.4744C25.0919 64.7365 24.9606 64.9644 24.7877 65.1581C24.6145 65.3587 24.4023 65.5182 24.1512 65.6344C23.8998 65.7507 23.6179 65.8101 23.3052 65.8101H22.4173L22.3672 65.2427H23.2548ZM23.0456 62.4234C23.0456 62.5624 23.0595 62.6832 23.0873 62.7835C23.1208 62.8837 23.1739 62.966 23.2466 63.0344C23.3248 63.0936 23.428 63.1413 23.5563 63.1754C23.6849 63.2028 23.8467 63.2165 24.0422 63.2165H24.7959V62.592C24.7959 62.1795 24.715 61.8858 24.5532 61.708C24.3911 61.5303 24.1678 61.4414 23.8831 61.4414C23.6151 61.4414 23.4084 61.5303 23.2633 61.708C23.1181 61.8858 23.0456 62.1248 23.0456 62.4234Z" fill="#252525"/>
<path d="M29.2065 63.2143C29.3293 63.2143 29.4325 63.2006 29.5164 63.1733C29.6 63.1391 29.667 63.1004 29.7174 63.0571C29.7732 63.0069 29.8122 62.9522 29.8345 62.8975C29.8626 62.8428 29.8765 62.7881 29.8765 62.738C29.8765 62.6833 29.8653 62.6081 29.843 62.5147C29.8206 62.4189 29.7787 62.2799 29.7174 62.0976C29.6616 61.913 29.5777 61.6692 29.466 61.3638C29.3601 61.0584 29.2204 60.6664 29.0474 60.1879L29.5581 59.9805L30.4544 62.5215C30.5437 62.7722 30.647 62.9499 30.7641 63.0571C30.8815 63.1619 31.0463 63.2143 31.2584 63.2143H31.3756C31.4984 63.2143 31.5599 63.3078 31.5599 63.4969C31.5599 63.6929 31.4984 63.7886 31.3756 63.7886H31.2584C31.0741 63.7886 30.8981 63.7567 30.7306 63.6906C30.5631 63.6177 30.4097 63.465 30.27 63.2303C30.1529 63.4582 30.0048 63.6086 29.8261 63.6815C29.6531 63.7544 29.4633 63.7886 29.2566 63.7886H27.456L27.4141 63.2143H29.2065Z" fill="#252525"/>
<path d="M31.5059 63.2165C31.7237 63.2165 31.8883 63.1641 31.9999 63.0592C32.1116 62.9521 32.1674 62.8108 32.1674 62.6331V62.3163C32.1674 61.8332 32.2903 61.4549 32.536 61.1814C32.7873 60.9102 33.1335 60.7734 33.5745 60.7734C33.8035 60.7734 34.0045 60.8099 34.1775 60.8828C34.3507 60.9535 34.4931 61.056 34.6048 61.1905C34.7219 61.3249 34.8085 61.4822 34.8644 61.6668C34.9202 61.8491 34.948 62.0519 34.948 62.2753C34.948 62.7516 34.8224 63.1253 34.5713 63.392C34.3199 63.6586 33.9765 63.7908 33.541 63.7908C33.3176 63.7908 33.1027 63.7498 32.8963 63.6677C32.6896 63.5788 32.5278 63.4216 32.4104 63.2005C32.3602 63.3281 32.2987 63.4307 32.2262 63.5082C32.1535 63.5857 32.0781 63.6472 31.9999 63.6928C31.9218 63.7315 31.8381 63.7589 31.7488 63.7748C31.6649 63.7862 31.584 63.7908 31.5059 63.7908H31.3719C31.2992 63.7908 31.2518 63.7703 31.2294 63.7247C31.2016 63.6814 31.1875 63.6107 31.1875 63.5173C31.1875 63.417 31.2016 63.3418 31.2294 63.2917C31.2518 63.2415 31.2992 63.2165 31.3719 63.2165H31.5059ZM34.412 62.3254C34.412 62.036 34.3479 61.8013 34.2194 61.6235C34.0911 61.4412 33.8705 61.35 33.5578 61.35C32.9772 61.35 32.6868 61.685 32.6868 62.3573C32.6868 62.6422 32.765 62.8541 32.9213 63C33.0831 63.1436 33.2898 63.2165 33.541 63.2165C33.8258 63.2165 34.0407 63.139 34.1859 62.984C34.3368 62.8268 34.412 62.608 34.412 62.3254Z" fill="#252525"/>
<path d="M39.8714 65.2416C40.1563 65.2416 40.3935 65.2143 40.5834 65.1573C40.7789 65.1026 40.938 65.0274 41.0608 64.934C41.1837 64.8451 41.2703 64.7425 41.3204 64.624C41.3762 64.5146 41.4043 64.3961 41.4043 64.2753C41.4043 64.1409 41.3678 64.0269 41.2953 63.9335C41.2283 63.8378 41.1109 63.7899 40.9434 63.7899H39.5449L39.5868 63.2156H42.5599C42.6827 63.2156 42.7443 63.3091 42.7443 63.4982C42.7443 63.6942 42.6827 63.7899 42.5599 63.7899H41.7393C41.8117 63.8515 41.8591 63.9267 41.8815 64.0156C41.9095 64.1044 41.9234 64.2047 41.9234 64.3164C41.9234 64.4668 41.8899 64.6286 41.8229 64.7995C41.7616 64.9727 41.6527 65.1322 41.4963 65.2826C41.3455 65.4331 41.1417 65.5584 40.8849 65.6587C40.6337 65.7589 40.3208 65.8091 39.9469 65.8091H39.1093C38.484 65.8091 37.9981 65.6176 37.652 65.2325C37.3058 64.8496 37.1328 64.3255 37.1328 63.6578V62.1992H37.6688V63.6418C37.6688 63.8788 37.6966 64.0976 37.7525 64.2913C37.814 64.485 37.9061 64.6537 38.0289 64.7904C38.1574 64.9362 38.3165 65.0479 38.5063 65.1254C38.6962 65.2029 38.925 65.2416 39.193 65.2416H39.8714Z" fill="#252525"/>
<path d="M42.6931 63.2165C42.911 63.2165 43.0755 63.1641 43.1872 63.0592C43.2989 62.9521 43.3547 62.8108 43.3547 62.6331V62.3163C43.3547 61.8332 43.4776 61.4549 43.7232 61.1814C43.9746 60.9102 44.3208 60.7734 44.7617 60.7734C44.9908 60.7734 45.1918 60.8099 45.3648 60.8828C45.538 60.9535 45.6804 61.056 45.7921 61.1905C45.9092 61.3249 45.9958 61.4822 46.0516 61.6668C46.1075 61.8491 46.1353 62.0519 46.1353 62.2753C46.1353 62.7516 46.0097 63.1253 45.7586 63.392C45.5072 63.6586 45.1638 63.7908 44.7282 63.7908C44.5049 63.7908 44.29 63.7498 44.0835 63.6677C43.8768 63.5788 43.715 63.4216 43.5977 63.2005C43.5475 63.3281 43.486 63.4307 43.4135 63.5082C43.3408 63.5857 43.2654 63.6472 43.1872 63.6928C43.109 63.7315 43.0254 63.7589 42.9361 63.7748C42.8522 63.7862 42.7713 63.7908 42.6931 63.7908H42.5591C42.4867 63.7908 42.439 63.7703 42.4167 63.7247C42.3889 63.6814 42.375 63.6107 42.375 63.5173C42.375 63.417 42.3889 63.3418 42.4167 63.2917C42.439 63.2415 42.4867 63.2165 42.5591 63.2165H42.6931ZM45.5993 62.3254C45.5993 62.036 45.5352 61.8013 45.4067 61.6235C45.2784 61.4412 45.0578 61.35 44.7451 61.35C44.1644 61.35 43.8741 61.685 43.8741 62.3573C43.8741 62.6422 43.9523 62.8541 44.1086 63C44.2704 63.1436 44.4771 63.2165 44.7282 63.2165C45.0131 63.2165 45.228 63.139 45.3732 62.984C45.5241 62.8268 45.5993 62.608 45.5993 62.3254Z" fill="#252525"/>
<path d="M47.1875 58.6211H47.7319V63.7898H47.1875V58.6211Z" fill="#252525"/>
<path d="M50.4447 63.2143C50.5676 63.2143 50.6708 63.2006 50.7545 63.1733C50.8383 63.1391 50.9053 63.1004 50.9555 63.0571C51.0113 63.0069 51.0505 62.9522 51.0728 62.8975C51.1006 62.8428 51.1148 62.7881 51.1148 62.738C51.1148 62.6833 51.1036 62.6081 51.0812 62.5147C51.0589 62.4189 51.017 62.2799 50.9555 62.0976C50.8996 61.913 50.816 61.6692 50.7043 61.3638C50.5981 61.0584 50.4586 60.6664 50.2854 60.1879L50.7964 59.9805L51.6925 62.5215C51.7818 62.7722 51.8853 62.9499 52.0024 63.0571C52.1198 63.1619 52.2843 63.2143 52.4965 63.2143H52.6138C52.7367 63.2143 52.798 63.3078 52.798 63.4969C52.798 63.6929 52.7367 63.7886 52.6138 63.7886H52.4965C52.3123 63.7886 52.1364 63.7567 51.9689 63.6906C51.8014 63.6177 51.6478 63.465 51.5083 63.2303C51.391 63.4582 51.2431 63.6086 51.0644 63.6815C50.8914 63.7544 50.7016 63.7886 50.4949 63.7886H48.6943L48.6523 63.2143H50.4447Z" fill="#252525"/>
<path d="M56.2405 62.5981C56.3354 62.8329 56.4416 62.9924 56.5587 63.0813C56.6815 63.1724 56.8463 63.2157 57.0528 63.2157H57.6056C57.6781 63.2157 57.7257 63.2408 57.7481 63.2909C57.7759 63.3342 57.7898 63.4049 57.7898 63.4983C57.7898 63.5986 57.7759 63.6738 57.7481 63.7239C57.7257 63.7695 57.6781 63.79 57.6056 63.79H57.0111C56.8267 63.79 56.6704 63.765 56.5421 63.7171C56.4192 63.667 56.313 63.5986 56.2237 63.5166C56.14 63.4277 56.0674 63.3251 56.006 63.2066C55.9502 63.0904 55.8971 62.9628 55.8467 62.8237L55.0345 63.3C54.8894 63.3821 54.7497 63.4573 54.6157 63.5234C54.4817 63.5849 54.3365 63.6351 54.1802 63.6738C54.0238 63.7125 53.8506 63.7444 53.6608 63.7649C53.4766 63.7832 53.2645 63.79 53.0243 63.79H52.6141C52.5414 63.79 52.494 63.7695 52.4716 63.7239C52.4436 63.6806 52.4297 63.61 52.4297 63.5166C52.4297 63.4163 52.4436 63.3411 52.4716 63.2909C52.494 63.2408 52.5414 63.2157 52.6141 63.2157H53.0327C53.2506 63.2157 53.4431 63.2112 53.6106 63.1998C53.7781 63.1815 53.9317 63.161 54.0712 63.1314C54.2109 63.0995 54.3422 63.0585 54.465 63.0083C54.5879 62.9582 54.7134 62.8944 54.8417 62.8146L56.2572 61.9988C56.2125 61.8825 56.1651 61.7754 56.1148 61.682C56.0646 61.5817 56.0003 61.4974 55.9222 61.4313C55.8497 61.3652 55.7574 61.3151 55.6457 61.2809C55.5341 61.2422 55.3946 61.2239 55.2271 61.2239H53.3511L53.4012 60.6473H55.3025C55.4477 60.6473 55.5956 60.6656 55.7462 60.6975C55.9026 60.7317 56.0478 60.8023 56.1818 60.914C56.3215 61.0211 56.4498 61.1783 56.5671 61.3903C56.69 61.5999 56.7905 61.8825 56.8686 62.2312L56.2405 62.5981ZM55.068 59.7061H54.3643V59.0977H55.068V59.7061Z" fill="#252525"/>
<path d="M58.2349 63.2147C58.4695 63.2147 58.6481 63.1554 58.771 63.0392C58.8938 62.923 58.9553 62.7612 58.9553 62.556V61.4052H59.4995V62.556C59.4995 62.6791 59.5191 62.7817 59.5583 62.8637C59.603 62.948 59.6588 63.0164 59.7258 63.0734C59.7928 63.1235 59.868 63.16 59.9519 63.1805C60.0355 63.2033 60.1221 63.2147 60.2115 63.2147H60.4629C60.5912 63.2147 60.6554 63.3081 60.6554 63.4973C60.6554 63.6932 60.5912 63.789 60.4629 63.789H60.1948C59.9938 63.789 59.8067 63.7548 59.6335 63.6819C59.4606 63.6044 59.3181 63.4585 59.2065 63.2488C59.0782 63.4585 58.93 63.6044 58.7625 63.6819C58.6007 63.7548 58.4248 63.789 58.2349 63.789H57.5984C57.5257 63.789 57.4783 63.7684 57.456 63.7229C57.4282 63.6796 57.4141 63.6089 57.4141 63.5155C57.4141 63.4152 57.4282 63.34 57.456 63.2899C57.4783 63.2397 57.5257 63.2147 57.5984 63.2147H58.2349ZM60.002 60.3386H59.332V59.7461H60.002V60.3386ZM58.9385 60.3386H58.2684V59.7461H58.9385V60.3386Z" fill="#252525"/>
<path d="M60.7669 63.2157C61.0014 63.2157 61.1828 63.1565 61.3113 63.0403C61.4453 62.924 61.5123 62.7622 61.5123 62.5571V61.4062H62.0568V62.5571C62.0568 62.6802 62.0762 62.7827 62.1154 62.8648C62.16 62.9491 62.2159 63.0175 62.2829 63.0744C62.3553 63.1246 62.4335 63.1611 62.5174 63.1816C62.6067 63.2044 62.696 63.2157 62.7854 63.2157C63.0477 63.2157 63.2459 63.1565 63.3799 63.0403C63.5196 62.924 63.5894 62.7622 63.5894 62.5571V61.4062H64.1338V62.5571C64.1338 62.801 64.2008 62.9742 64.3348 63.0744C64.4743 63.1679 64.6306 63.2157 64.8038 63.2157C65.016 63.2157 65.1835 63.1565 65.3063 63.0403C65.4346 62.924 65.4989 62.7622 65.4989 62.5571V61.4062H66.0434V62.5571C66.0434 62.9514 65.9317 63.2568 65.7083 63.4733C65.4905 63.6852 65.1947 63.79 64.8205 63.79C64.6195 63.79 64.4326 63.7559 64.2594 63.6829C64.0862 63.6055 63.944 63.4596 63.8323 63.2499C63.7095 63.4596 63.5531 63.6055 63.3633 63.6829C63.1789 63.7559 62.9864 63.79 62.7854 63.79C62.5675 63.79 62.3695 63.7559 62.1908 63.6829C62.0121 63.6055 61.8669 63.4596 61.7553 63.2499C61.6324 63.4596 61.4816 63.6055 61.3029 63.6829C61.1242 63.7559 60.9344 63.79 60.7334 63.79H60.4654C60.3929 63.79 60.3453 63.7695 60.323 63.724C60.2951 63.6807 60.2812 63.61 60.2812 63.5166C60.2812 63.4163 60.2951 63.3411 60.323 63.2909C60.3453 63.2408 60.3929 63.2157 60.4654 63.2157H60.7669Z" fill="#252525"/>
<path d="M67.0859 58.6211H67.6304V63.7898H67.0859V58.6211Z" fill="#252525"/>
<path d="M72.6683 65.2416C72.9532 65.2416 73.1904 65.2143 73.3802 65.1573C73.5756 65.1026 73.7348 65.0274 73.8577 64.934C73.9805 64.8451 74.0669 64.7425 74.1173 64.624C74.1731 64.5146 74.2009 64.3961 74.2009 64.2753C74.2009 64.1409 74.1647 64.0269 74.0922 63.9335C74.0252 63.8378 73.9078 63.7899 73.7403 63.7899H72.3417L72.3837 63.2156H75.3568C75.4796 63.2156 75.5409 63.3091 75.5409 63.4982C75.5409 63.6942 75.4796 63.7899 75.3568 63.7899H74.5359C74.6086 63.8515 74.656 63.9267 74.6783 64.0156C74.7064 64.1044 74.7203 64.2047 74.7203 64.3164C74.7203 64.4668 74.6868 64.6286 74.6198 64.7995C74.5582 64.9727 74.4495 65.1322 74.2932 65.2826C74.1423 65.4331 73.9386 65.5584 73.6818 65.6587C73.4304 65.7589 73.1177 65.8091 72.7437 65.8091H71.9062C71.2809 65.8091 70.795 65.6176 70.4488 65.2325C70.1026 64.8496 69.9297 64.3255 69.9297 63.6578V62.1992H70.4657V63.6418C70.4657 63.8788 70.4935 64.0976 70.5493 64.2913C70.6109 64.485 70.7029 64.6537 70.8258 64.7904C70.9541 64.9362 71.1134 65.0479 71.3032 65.1254C71.493 65.2029 71.7219 65.2416 71.9899 65.2416H72.6683Z" fill="#252525"/>
<path d="M76.1518 63.2168V62.3668C76.1518 62.1662 76.1742 61.9657 76.2188 61.7651C76.2635 61.56 76.3362 61.3777 76.4367 61.2159C76.5427 61.0495 76.6824 60.9128 76.8553 60.808C77.034 60.7009 77.2574 60.6484 77.5254 60.6484C77.7321 60.6484 77.9135 60.6826 78.0698 60.7487C78.2318 60.8148 78.3658 60.9082 78.4718 61.0245C78.578 61.1407 78.6562 61.2797 78.7063 61.4415C78.7621 61.5965 78.7902 61.7651 78.7902 61.9497C78.7902 62.205 78.7343 62.442 78.6227 62.6585C78.511 62.875 78.3574 63.0641 78.1619 63.2259C77.972 63.3855 77.746 63.5176 77.4837 63.6179C77.2266 63.7114 76.9531 63.7638 76.6628 63.7752V64.4019C76.6628 64.7004 76.7186 64.9101 76.8303 65.0263C76.9419 65.1494 77.0871 65.22 77.2658 65.2428L78.0614 64.2013C78.2457 63.9666 78.4075 63.7866 78.5472 63.6589C78.6867 63.5245 78.8207 63.4242 78.9492 63.3581C79.0832 63.292 79.22 63.2533 79.3597 63.2419C79.4992 63.2259 79.6612 63.2168 79.8453 63.2168C79.918 63.2168 79.9654 63.2419 79.9878 63.292C80.0156 63.3353 80.0297 63.406 80.0297 63.4994C80.0297 63.5997 80.0156 63.6749 79.9878 63.725C79.9654 63.7706 79.918 63.7911 79.8453 63.7911C79.6778 63.7911 79.5299 63.798 79.4014 63.8094C79.2786 63.8208 79.1587 63.8527 79.0413 63.9096C78.9242 63.9712 78.8041 64.06 78.6812 64.1763C78.5584 64.2971 78.416 64.468 78.2542 64.6845L77.4167 65.8103C77.238 65.8103 77.0703 65.7852 76.9139 65.7351C76.7633 65.6849 76.632 65.6052 76.5203 65.4935C76.4087 65.3818 76.3193 65.2405 76.2523 65.0673C76.1853 64.8964 76.1518 64.6845 76.1518 64.4338V63.7911H75.3562C75.2835 63.7911 75.2361 63.7706 75.2138 63.725C75.186 63.6817 75.1719 63.6111 75.1719 63.5176C75.1719 63.4174 75.186 63.3422 75.2138 63.292C75.2361 63.2419 75.2835 63.2168 75.3562 63.2168H76.1518ZM76.6628 63.2328C76.9308 63.2282 77.1653 63.1895 77.3663 63.1165C77.573 63.0436 77.7432 62.9525 77.8772 62.8408C78.0112 62.7314 78.1117 62.6061 78.1787 62.4671C78.2457 62.328 78.2792 62.189 78.2792 62.05C78.2792 61.7993 78.215 61.5965 78.0867 61.4415C77.9638 61.2843 77.771 61.2068 77.5087 61.2068C77.2407 61.2068 77.0313 61.3048 76.8804 61.4985C76.7352 61.6945 76.6628 61.9748 76.6628 62.3417V63.2328Z" fill="#252525"/>
<path d="M80.5688 58.4461L83.0814 57.4297L83.1819 57.8376L80.5855 58.8814L80.5688 58.4461ZM82.0595 63.216C82.3108 63.216 82.4838 63.1658 82.5789 63.0655C82.6737 62.9607 82.7211 62.8354 82.7211 62.6918C82.7211 62.5961 82.7044 62.4912 82.6709 62.375C82.6374 62.2565 82.5453 62.1243 82.3945 61.9739L80.5855 60.1804V59.5901L83.3576 58.4962L83.5 59.0386L81.1215 59.9639L82.6374 61.4725C82.7714 61.6116 82.8803 61.7369 82.964 61.8486C83.0533 61.9602 83.1231 62.0651 83.1734 62.1654C83.2236 62.2656 83.2571 62.3636 83.2739 62.4571C83.2906 62.5528 83.299 62.6508 83.299 62.7579C83.299 62.9356 83.2682 63.0906 83.2069 63.2251C83.1511 63.3527 83.0702 63.4575 82.964 63.5418C82.858 63.6239 82.7322 63.6877 82.587 63.7333C82.4419 63.772 82.2828 63.7902 82.1098 63.7902H79.8484C79.7757 63.7902 79.7283 63.7697 79.706 63.7242C79.6782 63.6809 79.6641 63.6102 79.6641 63.5168C79.6641 63.4165 79.6782 63.3413 79.706 63.2911C79.7283 63.241 79.7757 63.216 79.8484 63.216H82.0595Z" fill="#252525"/>
<path d="M84.8777 59.7613H85.4222V63.7879H84.8777V59.7613ZM84.7437 58.8542C84.6378 58.8542 84.5512 58.8631 84.4842 58.8859C84.4229 58.9041 84.3698 58.9682 84.3251 59.0776L84.1491 59.4534L83.7891 59.2961L84.0067 58.8109C84.0571 58.7107 84.1045 58.6309 84.1491 58.5694C84.1938 58.5078 84.2442 58.462 84.3 58.4278C84.3501 58.3936 84.4087 58.3734 84.4757 58.362C84.5484 58.3506 84.6321 58.3438 84.7271 58.3438H86.2681L86.243 58.8542H84.7437Z" fill="#252525"/>
<path d="M90.4576 65.2416C90.7422 65.2416 90.9795 65.2143 91.1693 65.1573C91.3649 65.1026 91.5239 65.0274 91.6468 64.934C91.7696 64.8451 91.8562 64.7425 91.9063 64.624C91.9622 64.5146 91.9902 64.3961 91.9902 64.2753C91.9902 64.1409 91.954 64.0269 91.8813 63.9335C91.8143 63.8378 91.6971 63.7899 91.5296 63.7899H90.1308L90.1727 63.2156H93.1459C93.2687 63.2156 93.3302 63.3091 93.3302 63.4982C93.3302 63.6942 93.2687 63.7899 93.1459 63.7899H92.3252C92.3977 63.8515 92.4453 63.9267 92.4676 64.0156C92.4954 64.1044 92.5094 64.2047 92.5094 64.3164C92.5094 64.4668 92.4758 64.6286 92.4088 64.7995C92.3475 64.9727 92.2386 65.1322 92.0823 65.2826C91.9316 65.4331 91.7277 65.5584 91.4708 65.6587C91.2197 65.7589 90.907 65.8091 90.5328 65.8091H89.6953C89.0699 65.8091 88.5843 65.6176 88.2381 65.2325C87.892 64.8496 87.7188 64.3255 87.7188 63.6578V62.1992H88.2548V63.6418C88.2548 63.8788 88.2828 64.0976 88.3386 64.2913C88.3999 64.485 88.492 64.6537 88.6148 64.7904C88.7434 64.9362 88.9024 65.0479 89.0923 65.1254C89.2821 65.2029 89.5112 65.2416 89.7792 65.2416H90.4576Z" fill="#252525"/>
<path d="M95.2558 63.1905C95.507 62.7347 95.7442 62.345 95.9676 62.0236C96.1909 61.7 96.406 61.4402 96.6125 61.2397C96.8192 61.0346 97.0202 60.8864 97.2155 60.7976C97.4111 60.7041 97.6091 60.6562 97.8101 60.6562C98.028 60.6562 98.2233 60.6973 98.3965 60.7816C98.5751 60.8636 98.7287 60.9776 98.857 61.1234C98.9856 61.267 99.0831 61.4379 99.1501 61.6316C99.2228 61.8254 99.259 62.035 99.259 62.2561C99.259 62.5227 99.1893 62.7643 99.0496 62.9831C99.1613 63.0925 99.2814 63.1608 99.4099 63.1813C99.5439 63.2041 99.7002 63.2155 99.8789 63.2155H100.004C100.127 63.2155 100.189 63.309 100.189 63.4981C100.189 63.6941 100.127 63.7898 100.004 63.7898H99.8789C99.7896 63.7898 99.7003 63.7898 99.6109 63.7898C99.5216 63.7853 99.4293 63.7716 99.3345 63.7488C99.2451 63.7214 99.1531 63.6827 99.058 63.6326C98.9687 63.5824 98.8821 63.5095 98.7985 63.4161C98.6699 63.5277 98.5193 63.6189 98.3461 63.6918C98.1786 63.7579 97.9833 63.7898 97.76 63.7898H95.4316C95.2139 63.7898 95.0156 63.7556 94.837 63.6827C94.6583 63.6052 94.5131 63.4594 94.4015 63.2497C94.2786 63.4594 94.125 63.6052 93.9409 63.6827C93.7622 63.7556 93.5751 63.7898 93.3796 63.7898H93.1451C93.0726 63.7898 93.0252 63.7693 93.0029 63.7237C92.9748 63.6804 92.9609 63.6098 92.9609 63.5163C92.9609 63.4161 92.9748 63.3409 93.0029 63.2907C93.0252 63.2406 93.0726 63.2155 93.1451 63.2155H93.4131C93.6476 63.2155 93.8292 63.1563 93.9575 63.04C94.0915 62.9238 94.1585 62.762 94.1585 62.5569V61.406H94.703V62.5569C94.703 62.7347 94.7533 62.8782 94.8538 62.9899C94.9598 63.097 95.0938 63.1631 95.2558 63.1905ZM98.7146 62.2561C98.7146 62.1125 98.6895 61.978 98.6394 61.8573C98.5947 61.7296 98.5305 61.6203 98.4466 61.5314C98.363 61.4379 98.2625 61.365 98.1451 61.3149C98.0334 61.2579 97.9106 61.2306 97.7766 61.2306C97.4808 61.2306 97.1708 61.3901 96.847 61.7069C96.5289 62.0168 96.1742 62.5204 95.7834 63.2155H97.7766C97.894 63.2155 98.0084 63.1996 98.12 63.1654C98.2374 63.1266 98.3379 63.0674 98.4215 62.9899C98.5109 62.9079 98.5806 62.8076 98.631 62.6914C98.6868 62.5683 98.7146 62.4224 98.7146 62.2561Z" fill="#252525"/>
<path d="M102.119 63.1905C102.37 62.7347 102.608 62.345 102.831 62.0236C103.054 61.7 103.269 61.4402 103.476 61.2397C103.682 61.0346 103.883 60.8864 104.079 60.7976C104.274 60.7041 104.472 60.6562 104.673 60.6562C104.891 60.6562 105.087 60.6973 105.26 60.7816C105.438 60.8636 105.592 60.9776 105.72 61.1234C105.849 61.267 105.946 61.4379 106.013 61.6316C106.086 61.8254 106.122 62.035 106.122 62.2561C106.122 62.5227 106.053 62.7643 105.913 62.9831C106.025 63.0925 106.145 63.1608 106.273 63.1813C106.407 63.2041 106.564 63.2155 106.742 63.2155H106.868C106.991 63.2155 107.052 63.309 107.052 63.4981C107.052 63.6941 106.991 63.7898 106.868 63.7898H106.742C106.653 63.7898 106.564 63.7898 106.474 63.7898C106.385 63.7853 106.293 63.7716 106.198 63.7488C106.108 63.7214 106.016 63.6827 105.921 63.6326C105.832 63.5824 105.745 63.5095 105.662 63.4161C105.533 63.5277 105.383 63.6189 105.209 63.6918C105.042 63.7579 104.847 63.7898 104.623 63.7898H102.295C102.077 63.7898 101.879 63.7556 101.7 63.6827C101.522 63.6052 101.376 63.4594 101.265 63.2497C101.142 63.4594 100.988 63.6052 100.804 63.6827C100.626 63.7556 100.438 63.7898 100.243 63.7898H100.008C99.9359 63.7898 99.8885 63.7693 99.8662 63.7237C99.8381 63.6804 99.8242 63.6098 99.8242 63.5163C99.8242 63.4161 99.8381 63.3409 99.8662 63.2907C99.8885 63.2406 99.9359 63.2155 100.008 63.2155H100.276C100.511 63.2155 100.693 63.1563 100.821 63.04C100.955 62.9238 101.022 62.762 101.022 62.5569V61.406H101.566V62.5569C101.566 62.7347 101.616 62.8782 101.717 62.9899C101.823 63.097 101.957 63.1631 102.119 63.1905ZM105.578 62.2561C105.578 62.1125 105.553 61.978 105.503 61.8573C105.458 61.7296 105.394 61.6203 105.31 61.5314C105.226 61.4379 105.126 61.365 105.008 61.3149C104.897 61.2579 104.774 61.2306 104.64 61.2306C104.344 61.2306 104.034 61.3901 103.71 61.7069C103.392 62.0168 103.038 62.5204 102.647 63.2155H104.64C104.757 63.2155 104.872 63.1996 104.983 63.1654C105.1 63.1266 105.201 63.0674 105.285 62.9899C105.374 62.9079 105.444 62.8076 105.494 62.6914C105.55 62.5683 105.578 62.4224 105.578 62.2561Z" fill="#252525"/>
<path d="M110.498 62.5981C110.593 62.8329 110.699 62.9924 110.817 63.0813C110.939 63.1724 111.104 63.2157 111.311 63.2157H111.863C111.936 63.2157 111.983 63.2408 112.006 63.2909C112.034 63.3342 112.048 63.4049 112.048 63.4983C112.048 63.5986 112.034 63.6738 112.006 63.7239C111.983 63.7695 111.936 63.79 111.863 63.79H111.269C111.085 63.79 110.928 63.765 110.8 63.7171C110.677 63.667 110.571 63.5986 110.482 63.5166C110.398 63.4277 110.325 63.3251 110.264 63.2066C110.208 63.0904 110.155 62.9628 110.105 62.8237L109.292 63.3C109.147 63.3821 109.007 63.4573 108.873 63.5234C108.739 63.5849 108.594 63.6351 108.438 63.6738C108.281 63.7125 108.108 63.7444 107.919 63.7649C107.734 63.7832 107.522 63.79 107.282 63.79H106.872C106.799 63.79 106.752 63.7695 106.729 63.7239C106.701 63.6806 106.688 63.61 106.688 63.5166C106.688 63.4163 106.701 63.3411 106.729 63.2909C106.752 63.2408 106.799 63.2157 106.872 63.2157H107.291C107.508 63.2157 107.701 63.2112 107.868 63.1998C108.036 63.1815 108.189 63.161 108.329 63.1314C108.469 63.0995 108.6 63.0585 108.723 63.0083C108.845 62.9582 108.971 62.8944 109.1 62.8146L110.515 61.9988C110.47 61.8825 110.423 61.7754 110.373 61.682C110.322 61.5817 110.258 61.4974 110.18 61.4313C110.107 61.3652 110.015 61.3151 109.904 61.2809C109.792 61.2422 109.652 61.2239 109.485 61.2239H107.609L107.659 60.6473H109.56C109.705 60.6473 109.853 60.6656 110.004 60.6975C110.16 60.7317 110.306 60.8023 110.44 60.914C110.579 61.0211 110.708 61.1783 110.825 61.3903C110.948 61.5999 111.048 61.8825 111.126 62.2312L110.498 62.5981ZM109.326 59.7061H108.622V59.0977H109.326V59.7061Z" fill="#252525"/>
<path d="M112.614 63.2147C112.831 63.2147 113.005 63.1554 113.133 63.0392C113.267 62.923 113.334 62.7612 113.334 62.556V61.4052H113.878V62.556C113.878 62.9503 113.767 63.2557 113.543 63.4722C113.326 63.6841 113.027 63.789 112.647 63.789H111.86C111.787 63.789 111.74 63.7684 111.718 63.7229C111.69 63.6796 111.676 63.6089 111.676 63.5155C111.676 63.4152 111.69 63.34 111.718 63.2899C111.74 63.2397 111.787 63.2147 111.86 63.2147H112.614ZM113.962 60.3386H113.292V59.7461H113.962V60.3386ZM112.898 60.3386H112.228V59.7461H112.898V60.3386Z" fill="#252525"/>
<path d="M117.789 63.3132C117.559 63.475 117.367 63.6297 117.211 63.7801C117.06 63.9237 116.937 64.0652 116.842 64.2042C116.753 64.3501 116.688 64.4934 116.649 64.6393C116.61 64.7874 116.591 64.9447 116.591 65.1065C116.591 65.5212 116.711 65.8471 116.951 66.0819C117.191 66.3143 117.59 66.4308 118.148 66.4308H119.656L119.606 66.9982H118.124C117.738 66.9982 117.412 66.9481 117.144 66.8478C116.881 66.7476 116.669 66.6108 116.507 66.4399C116.345 66.2735 116.228 66.075 116.155 65.8471C116.088 65.6261 116.055 65.3893 116.055 65.1386C116.055 64.733 116.155 64.3613 116.356 64.0217C116.557 63.6821 116.895 63.338 117.37 62.9871L116.072 61.3214L116.373 60.7539H118.526C118.805 60.7539 119.034 60.8198 119.212 60.9542C119.391 61.0819 119.48 61.2642 119.48 61.5035C119.48 61.5809 119.469 61.663 119.447 61.745C119.43 61.8293 119.383 61.9251 119.304 62.0367C119.226 62.1484 119.111 62.2808 118.961 62.4381C118.81 62.5885 118.604 62.7706 118.341 62.9871C118.425 63.044 118.508 63.0876 118.592 63.1217C118.676 63.1491 118.766 63.1719 118.861 63.1878C118.955 63.1992 119.059 63.2081 119.17 63.2127C119.282 63.2127 119.408 63.2127 119.547 63.2127H120.158C120.281 63.2127 120.343 63.3061 120.343 63.4953C120.343 63.6913 120.281 63.787 120.158 63.787H119.464C119.279 63.787 119.109 63.7847 118.953 63.7801C118.802 63.7733 118.66 63.7573 118.526 63.73C118.392 63.6958 118.263 63.6482 118.14 63.5889C118.023 63.5206 117.906 63.4294 117.789 63.3132ZM118.894 61.6379C118.894 61.5308 118.852 61.4488 118.768 61.3872C118.685 61.3257 118.553 61.2961 118.374 61.2961H116.7L117.864 62.7959C118.065 62.6295 118.229 62.488 118.358 62.3717C118.492 62.2532 118.598 62.1509 118.676 62.062C118.76 61.9732 118.816 61.8957 118.844 61.8296C118.877 61.7612 118.894 61.6972 118.894 61.6379Z" fill="#252525"/>
<path d="M122.581 63.3011C122.436 63.3832 122.297 63.4584 122.163 63.5245C122.029 63.586 121.883 63.6362 121.727 63.6749C121.571 63.7136 121.398 63.7455 121.208 63.7661C121.024 63.7843 120.811 63.7911 120.571 63.7911H120.161C120.088 63.7911 120.041 63.7706 120.019 63.725C119.99 63.6817 119.977 63.6111 119.977 63.5176C119.977 63.4174 119.99 63.3422 120.019 63.292C120.041 63.2419 120.088 63.2168 120.161 63.2168H120.58C120.797 63.2168 120.99 63.2123 121.158 63.2009C121.325 63.1826 121.479 63.1621 121.618 63.1325C121.758 63.1006 121.889 63.0596 122.012 63.0094C122.135 62.9593 122.26 62.8955 122.389 62.8157L123.804 61.9999C123.759 61.8836 123.712 61.7765 123.662 61.6831C123.612 61.5828 123.547 61.4985 123.469 61.4324C123.397 61.3663 123.304 61.3162 123.193 61.282C123.081 61.2433 122.941 61.225 122.774 61.225H120.898L120.948 60.6484H122.849C122.995 60.6484 123.142 60.6667 123.293 60.6986C123.449 60.7328 123.595 60.8034 123.729 60.9151C123.868 61.0222 123.997 61.1794 124.114 61.3914C124.237 61.601 124.337 61.8836 124.416 62.2323L122.581 63.3011ZM122.556 65.3682H121.853V64.7597H122.556V65.3682Z" fill="#252525"/>
<path d="M126.205 63.6579C126.205 63.9792 126.154 64.2709 126.054 64.533C125.953 64.7996 125.814 65.0275 125.635 65.2167C125.456 65.4058 125.247 65.5494 125.007 65.6497C124.767 65.7568 124.504 65.8092 124.22 65.8092H123.726L123.684 65.2417H124.094C124.373 65.2417 124.613 65.1984 124.814 65.1095C125.015 65.0184 125.18 64.8999 125.308 64.7495C125.437 64.6059 125.532 64.4395 125.593 64.2504C125.655 64.0612 125.685 63.863 125.685 63.6579V61.4062H126.221V62.5822C126.221 62.7759 126.285 62.9332 126.414 63.0494C126.548 63.161 126.721 63.2157 126.933 63.2157H127.025C127.148 63.2157 127.21 63.3092 127.21 63.4983C127.21 63.6943 127.148 63.79 127.025 63.79H126.933C126.799 63.79 126.665 63.765 126.531 63.7171C126.403 63.667 126.294 63.5804 126.205 63.4573V63.6579Z" fill="#252525"/>
<path d="M127.154 63.2165C127.372 63.2165 127.537 63.1641 127.648 63.0592C127.76 62.9521 127.816 62.8108 127.816 62.6331V62.3163C127.816 61.8332 127.939 61.4549 128.184 61.1814C128.436 60.9102 128.782 60.7734 129.223 60.7734C129.452 60.7734 129.653 60.8099 129.826 60.8828C129.999 60.9535 130.141 61.056 130.253 61.1905C130.37 61.3249 130.457 61.4822 130.513 61.6668C130.568 61.8491 130.596 62.0519 130.596 62.2753C130.596 62.7516 130.471 63.1253 130.219 63.392C129.968 63.6586 129.625 63.7908 129.189 63.7908C128.966 63.7908 128.751 63.7498 128.544 63.6677C128.338 63.5788 128.176 63.4216 128.059 63.2005C128.008 63.3281 127.947 63.4307 127.874 63.5082C127.802 63.5857 127.727 63.6472 127.648 63.6928C127.57 63.7315 127.486 63.7589 127.397 63.7748C127.313 63.7862 127.232 63.7908 127.154 63.7908H127.02C126.948 63.7908 126.9 63.7703 126.878 63.7247C126.85 63.6814 126.836 63.6107 126.836 63.5173C126.836 63.417 126.85 63.3418 126.878 63.2917C126.9 63.2415 126.948 63.2165 127.02 63.2165H127.154ZM130.06 62.3254C130.06 62.036 129.996 61.8013 129.868 61.6235C129.739 61.4412 129.519 61.35 129.206 61.35C128.625 61.35 128.335 61.685 128.335 62.3573C128.335 62.6422 128.413 62.8541 128.57 63C128.732 63.1436 128.938 63.2165 129.189 63.2165C129.474 63.2165 129.689 63.139 129.834 62.984C129.985 62.8268 130.06 62.608 130.06 62.3254Z" fill="#252525"/>
<path d="M7.51065 38.2846C6.18042 38.2846 5.02864 38.0886 4.0553 37.6989C3.11432 37.2751 2.3356 36.7236 1.71914 36.0399C1.13505 35.3562 0.69703 34.5586 0.404869 33.6493C0.145296 32.7377 0.015625 31.7782 0.015625 30.7687V23.5469H6.14806V29.1597C6.14806 29.5494 6.16424 29.9072 6.1966 30.2331C6.26155 30.5248 6.39122 30.7848 6.58607 31.0127C6.7807 31.2087 7.05645 31.3543 7.41333 31.4523C7.77022 31.5503 8.257 31.5982 8.87346 31.5982H23.2796C24.3503 31.5982 25.0643 31.3888 25.4212 30.9649C25.7781 30.5091 25.9565 29.8092 25.9565 28.8657V23.7905H32.1375V30.5248C32.1375 31.8603 31.9103 33.0134 31.4561 33.9911C31.0019 34.9665 30.4016 35.7803 29.6552 36.4298C28.9091 37.0474 28.0654 37.5191 27.1245 37.845C26.2161 38.139 25.2913 38.2846 24.3503 38.2846H7.51065ZM19.5807 49.5062H13.1563V43.6039H19.5807V49.5062Z" fill="#7409B7"/>
<path d="M44.4402 38.2827C43.4992 38.2827 42.607 38.1688 41.7633 37.9409C40.9196 37.6811 40.1735 37.2572 39.5245 36.6715C38.908 36.0858 38.405 35.3224 38.0158 34.3789C37.6589 33.4035 37.4805 32.1979 37.4805 30.7667V8.02734H43.6614V29.1578C43.6614 30.7827 44.3752 31.5963 45.803 31.5963H47.117C47.8308 31.5963 48.1877 32.6697 48.1877 34.8187C48.1877 37.1273 47.8308 38.2827 47.117 38.2827H44.4402Z" fill="#7409B7"/>
<path d="M61.0254 35.5979C60.0844 36.1517 59.1758 36.6075 58.2998 36.9653C57.4235 37.2889 56.4992 37.551 55.5259 37.7447C54.5523 37.9407 53.4978 38.0865 52.3622 38.1845C51.2266 38.2483 49.9287 38.2825 48.4686 38.2825H47.106C46.6842 38.2825 46.4082 38.0227 46.2783 37.5008C46.1161 36.9493 46.0352 36.1357 46.0352 35.0624C46.0352 33.8249 46.1161 32.9475 46.2783 32.4256C46.4082 31.8741 46.6842 31.5961 47.106 31.5961H48.712C49.9126 31.5961 50.9832 31.5961 51.9242 31.5961C52.8975 31.5642 53.7733 31.5003 54.5521 31.4024C55.3634 31.3044 56.1097 31.1403 56.7911 30.9147C57.5049 30.6868 58.2187 30.3768 58.9324 29.9871L63.7023 27.2547C63.5077 26.9926 63.3292 26.7829 63.167 26.6188C63.0047 26.4251 62.8101 26.277 62.5829 26.1813C62.3557 26.0833 62.0799 26.0172 61.7554 25.9853C61.4311 25.9534 61.0092 25.9374 60.4901 25.9374H50.5614L50.8535 19.2031H61.5608C62.5017 19.2031 63.4099 19.349 64.2862 19.6407C65.1945 19.9347 66.0384 20.4885 66.8172 21.2998C67.5959 22.0814 68.3097 23.1708 68.9585 24.5701C69.6399 25.9693 70.2078 27.7743 70.662 29.9871L61.0254 35.5979ZM62.3882 49.5041H55.9639V43.6016H62.3882V49.5041Z" fill="#7409B7"/>
<path d="M76.8164 8.02734H82.9926V38.1095H76.8164V8.02734Z" fill="#252525"/>
<path d="M97.4366 31.4621C98.3767 31.4621 99.0088 31.3003 99.3331 30.9767C99.6574 30.6212 99.8195 30.2474 99.8195 29.86C99.8195 29.6663 99.7871 29.4065 99.7222 29.0829C99.6574 28.7274 99.479 28.1462 99.1873 27.3372C98.9279 26.5282 98.5225 25.3796 97.9715 23.8914C97.4528 22.3714 96.7395 20.3499 95.8315 17.8271L101.667 15.4023L106.531 28.7433C106.887 29.6823 107.276 30.3773 107.698 30.8308C108.152 31.2502 108.914 31.4621 109.983 31.4621H110.518C111.232 31.4621 111.588 32.5287 111.588 34.664C111.588 36.9612 111.232 38.1075 110.518 38.1075H109.983C108.914 38.1075 107.86 37.9298 106.822 37.5743C105.817 37.1869 104.91 36.3778 104.099 35.1495C103.418 36.2479 102.559 37.0251 101.522 37.4786C100.517 37.8979 99.4143 38.1075 98.2146 38.1075H87.7588L87.5156 31.4621H97.4366Z" fill="#252525"/>
<path d="M110.758 31.4632C111.731 31.4632 112.509 31.3014 113.093 30.9778C113.676 30.6222 113.968 29.975 113.968 29.0361V28.5028C113.968 27.2403 114.163 26.0757 114.552 25.0092C114.941 23.9084 115.492 22.9718 116.205 22.1947C116.918 21.4198 117.794 20.8045 118.831 20.351C119.869 19.8975 121.02 19.6719 122.284 19.6719C123.613 19.6719 124.797 19.8975 125.834 20.351C126.872 20.8045 127.731 21.4358 128.412 22.2448C129.125 23.0197 129.66 23.9745 130.017 25.1072C130.406 26.2056 130.6 27.418 130.6 28.7444C130.6 31.7207 129.838 34.0338 128.314 35.6838C126.823 37.3019 124.813 38.1086 122.284 38.1086C121.02 38.1086 119.788 37.8511 118.588 37.3338C117.421 36.8164 116.562 36.0872 116.011 35.1505C115.395 36.249 114.6 37.0261 113.628 37.4796C112.655 37.8989 111.699 38.1086 110.758 38.1086H110.515C110.094 38.1086 109.818 37.8511 109.688 37.3338C109.526 36.7845 109.445 35.9755 109.445 34.9067C109.445 33.6783 109.526 32.8055 109.688 32.2882C109.818 31.7367 110.094 31.4632 110.515 31.4632H110.758ZM124.667 29.0361C124.667 28.357 124.505 27.7416 124.181 27.1924C123.856 26.6432 123.224 26.3674 122.284 26.3674C121.344 26.3674 120.712 26.6432 120.387 27.1924C120.063 27.7416 119.901 28.357 119.901 29.0361C119.901 30.6541 120.696 31.4632 122.284 31.4632C123.873 31.4632 124.667 30.6541 124.667 29.0361Z" fill="#252525"/>
<path d="M122.911 10.7335C123.674 10.7335 124.221 10.558 124.552 10.2048C124.882 9.86295 125.076 9.44134 125.133 8.93997H124.33C123.737 8.93997 123.253 8.87615 122.877 8.75081C122.501 8.62547 122.204 8.43859 121.988 8.18791C121.771 7.93722 121.618 7.63413 121.526 7.28089C121.447 6.91626 121.407 6.50149 121.407 6.0343C121.407 5.58991 121.469 5.16602 121.595 4.7672C121.72 4.35699 121.902 4.00375 122.142 3.70749C122.392 3.41122 122.7 3.17877 123.065 3.00785C123.441 2.82554 123.874 2.73438 124.364 2.73438C124.751 2.73438 125.116 2.79591 125.458 2.92125C125.811 3.04659 126.119 3.24714 126.381 3.52062C126.643 3.79409 126.848 4.15189 126.996 4.59628C127.155 5.04068 127.235 5.58306 127.235 6.22117V8.66421C127.235 9.24534 127.138 9.80369 126.945 10.3415C126.751 10.8771 126.472 11.3443 126.107 11.7431C125.742 12.1533 125.298 12.4769 124.774 12.7162C124.25 12.9555 123.657 13.0763 122.996 13.0763H121.321L121.219 10.7335H122.911ZM123.475 5.86338C123.475 6.13685 123.532 6.33056 123.646 6.44223C123.771 6.54478 123.999 6.5972 124.33 6.5972H125.167V6.11862C125.167 5.68562 125.093 5.38936 124.945 5.22983C124.808 5.0703 124.592 4.99054 124.295 4.99054C123.748 4.99054 123.475 5.28225 123.475 5.86338Z" fill="#252525"/>
<path fill-rule="evenodd" clip-rule="evenodd" d="M199.393 6.74831C189.958 -2.45866 153.769 -2.45866 145.747 8.0701C137.429 18.9863 137.224 51.4386 146.203 60.0758C155 68.5307 184.055 68.6219 194.858 63.4487C210.765 55.837 209.739 16.8669 199.393 6.74831Z" fill="#7409B7"/>
<path fill-rule="evenodd" clip-rule="evenodd" d="M170.776 14.8164C176.872 14.8164 181.804 19.7458 181.804 25.842C181.804 31.9359 176.872 36.8676 170.776 36.8676C164.682 36.8676 159.75 31.9359 159.75 25.842C159.75 19.7686 164.682 14.8164 170.776 14.8164ZM170.776 19.9737C174.019 19.9737 176.667 22.599 176.667 25.8648C176.667 29.1054 174.041 31.7536 170.776 31.7536C167.535 31.7536 164.887 29.1282 164.887 25.8648C164.887 22.599 167.512 19.9737 170.776 19.9737Z" fill="#FEFEFE"/>
<path fill-rule="evenodd" clip-rule="evenodd" d="M158.633 46.3149C159.339 48.2999 162.193 51.0164 163.997 51.9986C165.868 50.5606 168.448 46.6112 170.914 46.4972C172.922 46.4288 175.73 50.8568 177.512 51.9986C179.884 50.3327 181.482 48.7329 182.922 46.2921C182.282 45.7884 177.122 38.5984 170.732 38.6211C165.046 38.6439 161.121 43.8719 158.633 46.3149Z" fill="#FEFEFE"/>
<path fill-rule="evenodd" clip-rule="evenodd" d="M180.019 33.3489C181.024 32.3439 182.553 32.2527 183.444 33.121L187.211 36.8881C188.1 37.7769 187.986 39.3083 186.984 40.3111C185.979 41.3161 184.449 41.4073 183.558 40.539L179.791 36.7741C178.925 35.8831 179.016 34.3539 180.019 33.3489Z" fill="#FEFEFE"/>
</svg>
