<svg width="44" height="45" viewBox="0 0 44 45" fill="none" xmlns="http://www.w3.org/2000/svg">
<path d="M36.126 44.2244C26.7158 45.2527 17.2799 45.2527 7.86973 44.2244C4.11426 43.8113 1.14941 40.7878 0.754102 36.947C-0.251367 27.323 -0.251367 17.6726 0.754102 8.04858C1.15801 4.20776 4.11426 1.17554 7.86973 0.77124C17.2799 -0.25708 26.7158 -0.25708 36.126 0.77124C39.8814 1.18433 42.8463 4.20776 43.2416 8.04858C44.2471 17.6726 44.2471 27.323 43.2416 36.947C42.8463 40.7878 39.8814 43.8201 36.126 44.2244Z" fill="url(#paint0_linear_504_905)"/>
<path d="M40.8563 9.67676C40.5039 6.27539 37.8742 3.57715 34.5398 3.2168C26.1867 2.30273 17.8164 2.30273 9.46328 3.2168C6.1375 3.57715 3.49922 6.2666 3.14688 9.67676C2.25312 18.2197 2.25312 26.7803 3.14688 35.3232C3.49922 38.7334 6.12891 41.4229 9.46328 41.7832C17.8164 42.6973 26.1867 42.6973 34.5398 41.7832C37.8742 41.4229 40.5039 38.7334 40.8563 35.3232C41.75 26.7803 41.75 18.2197 40.8563 9.67676Z" fill="url(#paint1_linear_504_905)"/>
<path d="M0.664062 36.0156C0.698437 36.3232 0.724219 36.6396 0.758594 36.9473C1.1625 40.7881 4.11875 43.8203 7.87422 44.2246C17.2844 45.2529 26.7203 45.2529 36.1305 44.2246C39.8859 43.8115 42.8508 40.7881 43.2461 36.9473C43.2805 36.6396 43.3062 36.3232 43.3406 36.0156H0.664062Z" fill="url(#paint2_linear_504_905)"/>
<path d="M18.2539 26.9307L29.2883 35.4473L34.857 11.1367L6.39453 22.5889L15.057 25.5156L30.8609 14.6787L18.2539 26.9307Z" fill="white"/>
<path d="M15.0547 25.5166L17.4266 34.2529L18.2516 26.9316L30.8586 14.6797L15.0547 25.5166Z" fill="#D2D2D7"/>
<path d="M21.8383 29.6982L17.4297 34.251L18.2547 26.9297L21.8383 29.6982Z" fill="#B9B9BE"/>
<defs>
<linearGradient id="paint0_linear_504_905" x1="14.6067" y1="6.32471" x2="26.152" y2="30.4774" gradientUnits="userSpaceOnUse">
<stop stop-color="#00C3FF"/>
<stop offset="1" stop-color="#00B0ED"/>
</linearGradient>
<linearGradient id="paint1_linear_504_905" x1="31.3072" y1="27.6052" x2="-33.2531" y2="-6.25775" gradientUnits="userSpaceOnUse">
<stop stop-color="#00B0ED" stop-opacity="0"/>
<stop offset="1" stop-color="#00A2CE"/>
</linearGradient>
<linearGradient id="paint2_linear_504_905" x1="22.0025" y1="38.4399" x2="22.0025" y2="44.3364" gradientUnits="userSpaceOnUse">
<stop stop-color="#00B0ED" stop-opacity="0"/>
<stop offset="1" stop-color="#00A2CE"/>
</linearGradient>
</defs>
</svg>
